<?xml version="1.0" encoding="utf-8" standalone="no"?>
<!DOCTYPE svg PUBLIC "-//W3C//DTD SVG 1.1//EN" "http://www.w3.org/Graphics/SVG/1.1/DTD/svg11.dtd">
<svg version="1.1" width="480pt" height="288pt" viewBox="0 0 480 288" overflow="visible" xmlns="http://www.w3.org/2000/svg">
  <path d="M29.83718,197.9969 L7.905424,197.9969 L7.905424,210.3708 C7.905424,211.3574 7.66562,212.1145 7.186013,212.6421 C6.706406,213.1696 6.103471,213.4334 5.377208,213.4334 C4.637243,213.4334 4.037734,213.1731 3.578681,212.6523 C3.119629,212.1316 2.890102,211.3711 2.890102,210.3708 L2.890102,195.6331 C2.890102,194.3039 3.184718,193.3482 3.77395,192.7658 C4.363182,192.1834 5.315545,191.8922 6.631039,191.8922 L29.83718,191.8922 C31.07045,191.8922 31.99541,192.1697 32.61205,192.7247 C33.22868,193.2796 33.537,194.0093 33.537,194.9137 C33.537,195.8318 33.23211,196.5752 32.62232,197.1439 C32.01254,197.7126 31.08415,197.9969 29.83718,197.9969 z" stroke="Black" stroke-width="0" fill="#000000" fill-opacity="1" />
  <path d="M29.87828,157.4633 L12.11912,169.1999 L30.04272,169.1999 C31.20748,169.1999 32.08105,169.45 32.66343,169.9502 C33.24581,170.4503 33.537,171.1252 33.537,171.9748 C33.537,172.8518 33.24581,173.5438 32.66343,174.0508 C32.08105,174.5578 31.20748,174.8113 30.04272,174.8113 L6.343275,174.8113 C3.698583,174.8113 2.376238,173.7151 2.376238,171.5226 L2.612615,170.0427 L3.362858,168.8094 L4.565302,167.7406 L5.973292,166.7539 L23.52691,155.305 L5.870519,155.305 C4.719461,155.305 3.849317,155.0378 3.260085,154.5034 C2.670853,153.969 2.376238,153.2838 2.376238,152.4479 C2.376238,151.5846 2.674279,150.8926 3.270362,150.3719 C3.866446,149.8512 4.733164,149.5909 5.870519,149.5909 L29.11777,149.5909 L31.44043,149.9197 C32.05707,150.1801 32.56066,150.6117 32.9512,151.2147 C33.34174,151.8176 33.537,152.4685 33.537,153.1673 L33.26979,154.5753 L32.55038,155.6031 L31.37877,156.5075 z" stroke="Black" stroke-width="0" fill="#000000" fill-opacity="1" />
  <path d="M15.14064,143.6917 L9.364799,143.6917 L7.525164,143.4656 L6.28161,142.6331 L5.212772,141.0813 C4.226151,139.2587 3.50674,137.5047 3.054539,135.8193 C2.602338,134.1338 2.376238,132.2976 2.376238,130.3106 C2.376238,127.9948 2.732517,125.8846 3.445076,123.9798 C4.157636,122.0751 5.192217,120.4513 6.54882,119.1084 C7.905424,117.7655 9.549791,116.7343 11.48192,116.0149 C13.41405,115.2955 15.57229,114.9358 17.95662,114.9358 C20.29984,114.9358 22.44437,115.2852 24.39021,115.9841 C26.33604,116.6829 27.98726,117.7107 29.34387,119.0673 C30.70047,120.4239 31.73848,122.0751 32.45789,124.0209 C33.1773,125.9668 33.537,128.173 33.537,130.6395 C33.537,132.6676 33.26637,134.4627 32.7251,136.0248 C32.18383,137.587 31.5021,138.8545 30.67991,139.8274 C29.85773,140.8003 28.98759,141.5334 28.06948,142.0268 C27.15137,142.5201 26.33604,142.7667 25.62348,142.7667 C24.85611,142.7667 24.20179,142.4824 23.66052,141.9137 C23.11925,141.345 22.84861,140.6633 22.84861,139.8685 L23.15693,138.6044 L24.02023,137.587 L26.69232,135.6754 C27.29526,135.1547 27.80227,134.4524 28.21336,133.5685 C28.62445,132.6847 28.83,131.5576 28.83,130.1873 C28.83,128.7759 28.58677,127.5152 28.10031,126.4053 C27.61385,125.2953 26.90815,124.3464 25.98319,123.5585 C25.05823,122.7705 23.9243,122.1676 22.5814,121.7496 C21.2385,121.3317 19.75172,121.1227 18.12106,121.1227 C14.58567,121.1227 11.86561,121.9346 9.960883,123.5585 C8.056157,125.1823 7.103795,127.4467 7.103795,130.3517 C7.103795,131.7632 7.288786,133.0889 7.658769,134.3291 L9.241472,138.1008 L14.13347,138.1008 L14.13347,133.3733 C14.13347,132.2359 14.30475,131.3761 14.64733,130.7937 C14.98991,130.2113 15.57229,129.9201 16.39447,129.9201 C17.06592,129.9201 17.6209,130.1633 18.05939,130.6498 C18.49789,131.1362 18.71714,131.7974 18.71714,132.6333 L18.71714,139.5602 L18.49104,141.7184 C18.34031,142.3077 18.00458,142.7839 17.48386,143.147 C16.96315,143.5101 16.18207,143.6917 15.14064,143.6917 z" stroke="Black" stroke-width="0" fill="#000000" fill-opacity="1" />
  <path d="M6.096619,103.2402 L29.83718,103.2402 C31.07045,103.2402 31.99541,103.5211 32.61205,104.083 C33.22868,104.6448 33.537,105.3711 33.537,106.2618 C33.537,107.1799 33.23211,107.9233 32.62232,108.4919 C32.01254,109.0606 31.08415,109.345 29.83718,109.345 L6.096619,109.345 C4.84964,109.345 3.917832,109.0606 3.301194,108.4919 C2.684556,107.9233 2.376238,107.1799 2.376238,106.2618 C2.376238,105.3848 2.687982,104.6619 3.311472,104.0933 C3.934961,103.5246 4.863344,103.2402 6.096619,103.2402 z" stroke="Black" stroke-width="0" fill="#000000" fill-opacity="1" />
  <path d="M11.93412,97.81383 C10.11162,97.81383 8.474101,97.3445 7.021576,96.40584 C5.569051,95.46718 4.431697,94.09344 3.609513,92.28464 C2.787329,90.47584 2.376238,88.33131 2.376238,85.85105 C2.376238,82.87749 2.938063,80.42464 4.061714,78.49251 C4.870195,77.1222 5.949311,76.00883 7.299063,75.15238 C8.648815,74.29594 9.960883,73.86772 11.23527,73.86772 C11.97523,73.86772 12.609,74.12466 13.13657,74.63852 C13.66414,75.15238 13.92792,75.80671 13.92792,76.60149 C13.92792,77.24553 13.72237,77.79022 13.31128,78.23557 C12.90019,78.68092 12.2904,79.06119 11.48192,79.37636 L9.077036,80.61991 C8.432991,81.06525 7.901998,81.69217 7.484055,82.50066 C7.066111,83.30914 6.857139,84.37112 6.857139,85.68661 C6.857139,87.49542 7.278509,88.96507 8.121246,90.09557 C8.963985,91.22608 10.0157,91.79133 11.27638,91.79133 C12.2767,91.79133 13.08861,91.48643 13.7121,90.87665 C14.33559,90.26686 14.81177,89.47894 15.14064,88.51287 L16.18892,84.63833 C16.69594,82.47324 17.2886,80.66102 17.9669,79.20164 C18.6452,77.74226 19.57016,76.58436 20.74177,75.72791 C21.91338,74.87148 23.36933,74.44325 25.10962,74.44325 C26.76769,74.44325 28.24077,74.89545 29.52886,75.79986 C30.81694,76.70425 31.80699,78.0129 32.499,79.72578 C33.191,81.43867 33.537,83.45302 33.537,85.76884 C33.537,87.61874 33.30748,89.21858 32.84842,90.56833 C32.38937,91.91808 31.77958,93.03831 31.01907,93.92901 C30.25854,94.81971 29.46034,95.4706 28.62445,95.88169 C27.78857,96.29279 26.97324,96.49833 26.17846,96.49833 C25.4522,96.49833 24.79787,96.2414 24.21549,95.72753 C23.63311,95.21367 23.34192,94.57305 23.34192,93.80568 C23.34192,93.10683 23.51664,92.57583 23.86607,92.2127 L25.58237,91.03081 C26.71973,90.48269 27.607,89.82494 28.24419,89.05757 C28.88139,88.2902 29.19998,87.05692 29.19998,85.35774 C29.19998,83.78189 28.85398,82.51093 28.16198,81.54486 C27.46997,80.5788 26.63751,80.09576 25.66459,80.09576 C25.06166,80.09576 24.54094,80.2602 24.10244,80.58907 L22.97194,81.94568 L22.23198,83.69282 L21.4509,86.61157 L20.13541,91.22608 C19.6558,92.60323 19.07342,93.77485 18.38827,94.74091 C17.70311,95.70698 16.8364,96.46065 15.78811,97.00192 C14.73983,97.54319 13.45516,97.81383 11.93412,97.81383 z" stroke="Black" stroke-width="0" fill="#000000" fill-opacity="1" />
  <path d="M28.31614,66.69417 L28.31614,52.94315 L20.91648,52.94315 L20.91648,65.60477 C20.91648,66.53658 20.70751,67.23202 20.28957,67.69107 C19.87162,68.15012 19.32008,68.37965 18.63492,68.37965 C17.94977,68.37965 17.39137,68.15355 16.95972,67.70135 C16.52808,67.24915 16.31225,66.55029 16.31225,65.60477 L16.31225,52.94315 L7.740987,52.94315 L7.740987,67.16692 C7.740987,68.12614 7.518312,68.84898 7.072962,69.33543 C6.627613,69.82189 6.034956,70.06512 5.29499,70.06512 C4.582431,70.06512 4.003476,69.82189 3.558127,69.33543 C3.112777,68.84898 2.890102,68.12614 2.890102,67.16692 L2.890102,50.57937 C2.890102,49.25017 3.184718,48.29438 3.77395,47.712 C4.363182,47.12962 5.315545,46.83843 6.631039,46.83843 L29.2822,46.83843 L31.43016,47.22897 C31.98513,47.48933 32.38937,47.89699 32.64288,48.45197 L33.02314,50.57937 L33.02314,66.69417 C33.02314,67.66708 32.80732,68.38992 32.37567,68.86268 C31.94402,69.33543 31.37877,69.57182 30.67991,69.57182 C29.96736,69.57182 29.39525,69.33543 28.96361,68.86268 C28.53196,68.38992 28.31614,67.66708 28.31614,66.69417 z" stroke="Black" stroke-width="0" fill="#000000" fill-opacity="1" />
  <path d="M33.02314,19.45971 L33.02314,27.41434 C33.02314,29.4835 32.8313,31.25805 32.44761,32.73798 C32.06392,34.21791 31.34451,35.56081 30.28938,36.76668 C27.60358,39.90468 23.52006,41.47368 18.03884,41.47368 C16.23003,41.47368 14.57882,41.3161 13.08518,41.00093 C11.59155,40.68576 10.24522,40.1993 9.046204,39.54155 C7.847186,38.8838 6.774921,38.04107 5.82941,37.01334 C5.103147,36.20485 4.520767,35.32101 4.082269,34.36179 L3.157312,31.26833 L2.890102,27.53767 L2.890102,19.58304 C2.890102,18.47309 3.057965,17.6372 3.39369,17.07538 C3.729415,16.51355 4.202171,16.147 4.811957,15.97571 L7.186013,15.71877 L29.2822,15.71877 C30.5977,15.71877 31.55006,16.01339 32.13929,16.60262 C32.72852,17.19185 33.02314,18.14422 33.02314,19.45971 z M7.740987,26.44827 L7.823205,28.83261 L8.234297,30.62086 L9.159254,32.22411 C10.88584,34.26587 13.8594,35.28675 18.07995,35.28675 C21.05351,35.28675 23.28026,34.83797 24.76019,33.94042 C26.24012,33.04287 27.18221,31.93635 27.58645,30.62086 C27.99069,29.30536 28.19281,27.71581 28.19281,25.85219 L28.19281,21.82349 L7.740987,21.82349 z" stroke="Black" stroke-width="0" fill="#000000" fill-opacity="1" />
  <path d="M61.44192,94.97729 L61.44192,84.00114 C60.16753,84.01484 59.04388,84.27177 58.07097,84.77193 C57.09805,85.27209 56.36494,85.9367 55.87162,86.76573 C55.37831,87.59476 55.13166,88.50945 55.13166,89.50977 L55.36804,91.3494 L56.108,92.96294 L57.18712,94.40176 L58.74927,96.1078 L59.11925,97.34107 C59.11925,97.9166 58.96167,98.3825 58.6465,98.73878 C58.33133,99.09506 57.88597,99.2732 57.31045,99.2732 C56.80343,99.2732 56.21078,99.07451 55.53247,98.67712 C54.85417,98.27973 54.20328,97.68022 53.57979,96.87859 C52.9563,96.07697 52.43901,95.06979 52.02792,93.85706 C51.61683,92.64435 51.41128,91.25006 51.41128,89.67421 C51.41128,86.0703 52.43901,83.26803 54.49447,81.26738 C56.54993,79.26673 59.3385,78.2664 62.86019,78.2664 C64.51826,78.2664 66.05643,78.51306 67.47469,79.00637 C68.89296,79.49968 70.10911,80.21909 71.12314,81.1646 C72.13716,82.11012 72.91481,83.27488 73.45608,84.65888 C73.99735,86.04289 74.26799,87.57764 74.26799,89.26311 C74.26799,91.4556 73.80551,93.33635 72.88055,94.90535 C71.9556,96.47435 70.76,97.64939 69.29378,98.43047 C67.82755,99.21154 66.33392,99.60207 64.81287,99.60207 C63.40146,99.60207 62.48678,99.19784 62.06884,98.38935 C61.65089,97.58087 61.44192,96.44352 61.44192,94.97729 z M64.62788,84.00114 L64.62788,94.17566 C66.54631,94.03864 67.9817,93.52134 68.93407,92.62379 C69.88644,91.72624 70.36262,90.54435 70.36262,89.07813 C70.36262,87.68041 69.87959,86.53278 68.91351,85.63523 C67.94745,84.73768 66.51891,84.19298 64.62788,84.00114 z" stroke="Black" stroke-width="0" fill="#000000" fill-opacity="1" />
  <path d="M54.82334,67.90689 L79.15998,67.90689 C80.28363,67.90689 81.13322,68.15697 81.70875,68.65714 C82.28428,69.1573 82.57204,69.83217 82.57204,70.68176 C82.57204,71.53135 82.2877,72.21651 81.71902,72.73722 C81.15035,73.25793 80.29733,73.5183 79.15998,73.5183 L54.82334,73.5183 C53.68599,73.5183 52.83297,73.25451 52.26429,72.72694 C51.69562,72.19938 51.41128,71.51765 51.41128,70.68176 C51.41128,69.85958 51.70589,69.19155 52.29513,68.67769 C52.88436,68.16383 53.7271,67.90689 54.82334,67.90689 z" stroke="Black" stroke-width="0" fill="#000000" fill-opacity="1" />
  <path d="M73.73357,53.31313 L73.73357,53.92977 L77.10452,53.92977 L79.23193,54.00171 L80.55769,54.40252 L81.49293,55.34803 L81.85263,56.72519 C81.85263,57.43775 81.58543,58.08179 81.051,58.65732 C80.69473,59.04101 80.25965,59.28424 79.74579,59.38701 L77.55672,59.54117 L73.73357,59.54117 L73.73357,61.59663 C73.73357,62.39141 73.54515,62.99777 73.16832,63.41571 C72.79148,63.83366 72.30845,64.04263 71.71922,64.04263 C70.96555,64.04263 70.43798,63.74459 70.13651,63.1485 C69.83504,62.55242 69.68431,61.6994 69.68431,60.58945 L69.68431,59.54117 L59.36591,59.54117 L57.34128,59.63367 L56.19022,60.12698 C55.89561,60.39419 55.7483,60.82926 55.7483,61.43219 L55.92301,62.76824 L56.09772,64.08373 C56.09772,64.53593 55.91616,64.9436 55.55303,65.30673 C55.1899,65.66987 54.74112,65.85143 54.2067,65.85143 C53.3023,65.85143 52.6103,65.35812 52.13069,64.3715 C51.65108,63.38488 51.41128,61.96661 51.41128,60.1167 C51.41128,58.36271 51.70589,57.03351 52.29513,56.12911 C52.88436,55.2247 53.69969,54.63205 54.74112,54.35114 C55.78255,54.07022 57.17342,53.92977 58.9137,53.92977 L69.68431,53.92977 L69.68431,53.1898 C69.68431,52.38132 69.87616,51.76468 70.25984,51.33989 C70.64352,50.91509 71.12999,50.70269 71.71922,50.70269 C72.30845,50.70269 72.79148,50.92537 73.16832,51.37072 C73.54515,51.81607 73.73357,52.46354 73.73357,53.31313 z" stroke="Black" stroke-width="0" fill="#000000" fill-opacity="1" />
  <path d="M73.73357,38.41105 L73.73357,39.02769 L77.10452,39.02769 L79.23193,39.09962 L80.55769,39.50044 L81.49293,40.44595 L81.85263,41.82311 C81.85263,42.53567 81.58543,43.17971 81.051,43.75524 C80.69473,44.13893 80.25965,44.38216 79.74579,44.48493 L77.55672,44.63909 L73.73357,44.63909 L73.73357,46.69455 C73.73357,47.48933 73.54515,48.09569 73.16832,48.51363 C72.79148,48.93158 72.30845,49.14054 71.71922,49.14054 C70.96555,49.14054 70.43798,48.8425 70.13651,48.24642 C69.83504,47.65034 69.68431,46.79732 69.68431,45.68737 L69.68431,44.63909 L59.36591,44.63909 L57.34128,44.73159 L56.19022,45.2249 C55.89561,45.4921 55.7483,45.92718 55.7483,46.53011 L55.92301,47.86616 L56.09772,49.18166 C56.09772,49.63386 55.91616,50.04152 55.55303,50.40466 C55.1899,50.76778 54.74112,50.94935 54.2067,50.94935 C53.3023,50.94935 52.6103,50.45604 52.13069,49.46942 C51.65108,48.4828 51.41128,47.06453 51.41128,45.21462 C51.41128,43.46062 51.70589,42.13143 52.29513,41.22703 C52.88436,40.32262 53.69969,39.72997 54.74112,39.44905 C55.78255,39.16814 57.17342,39.02769 58.9137,39.02769 L69.68431,39.02769 L69.68431,38.28772 C69.68431,37.47924 69.87616,36.8626 70.25984,36.43781 C70.64352,36.01301 71.12999,35.80061 71.71922,35.80061 C72.30845,35.80061 72.79148,36.02329 73.16832,36.46864 C73.54515,36.91399 73.73357,37.56146 73.73357,38.41105 z" stroke="Black" stroke-width="0" fill="#000000" fill-opacity="1" />
  <path d="M76.83731,29.53146 C76.83731,28.75039 77.07712,28.08236 77.55672,27.52739 C78.03633,26.97242 78.71463,26.69493 79.59163,26.69493 C80.38641,26.69493 81.04073,26.97927 81.55459,27.54795 C82.06846,28.11662 82.32539,28.77779 82.32539,29.53146 C82.32539,30.25772 82.09244,30.90177 81.62653,31.46359 C81.16063,32.02542 80.48232,32.30633 79.59163,32.30633 C78.72833,32.30633 78.05346,32.03227 77.567,31.48415 C77.08054,30.93603 76.83731,30.28513 76.83731,29.53146 z" stroke="Black" stroke-width="0" fill="#000000" fill-opacity="1" />
  <path d="M71.04092,32.30633 L54.82334,32.30633 C53.69969,32.30633 52.8501,32.03912 52.27457,31.5047 C51.69904,30.97028 51.41128,30.29198 51.41128,29.4698 C51.41128,28.64762 51.70589,27.97959 52.29513,27.46573 C52.88436,26.95186 53.7271,26.69493 54.82334,26.69493 L70.87648,26.69493 C71.98643,26.69493 72.82231,26.95186 73.38414,27.46573 C73.94597,27.97959 74.22688,28.64762 74.22688,29.4698 C74.22688,30.29198 73.94597,30.97028 73.38414,31.5047 C72.82231,32.03912 72.04124,32.30633 71.04092,32.30633 z" stroke="Black" stroke-width="0" fill="#000000" fill-opacity="1" />
  <path d="M54.82334,15.28713 L79.15998,15.28713 C80.28363,15.28713 81.13322,15.53721 81.70875,16.03737 C82.28428,16.53753 82.57204,17.21241 82.57204,18.062 C82.57204,18.91159 82.2877,19.59674 81.71902,20.11746 C81.15035,20.63817 80.29733,20.89853 79.15998,20.89853 L54.82334,20.89853 C53.68599,20.89853 52.83297,20.63475 52.26429,20.10718 C51.69562,19.57961 51.41128,18.89789 51.41128,18.062 C51.41128,17.23981 51.70589,16.57179 52.29513,16.05793 C52.88436,15.54406 53.7271,15.28713 54.82334,15.28713 z" stroke="Black" stroke-width="0" fill="#000000" fill-opacity="1" />
  <path d="M361.1428,54.448 C383.8667,31.07478 390.6028,26.16478 396.4866,22.66826 C402.3705,19.17175 407.4023,17.08872 412.0417,16.17514 C416.6812,15.26157 420.9284,15.51745 425.0404,19.50767 C429.1523,23.49789 433.1291,31.22245 435.0346,41.17572 C436.9401,51.12898 436.7745,63.31096 435.6813,74.50105 C434.588,85.69115 432.5672,95.88937 428.7135,110.5522 C428.3266,113.0128 424.8956,115.0156 422.5628,114.1427 C420.1023,113.7558 418.0995,110.3249 418.9723,107.9921 C420.945,100.4861 422.7769,92.93541 424.0826,85.28616 C425.201,78.73484 425.9335,72.11122 426.2367,65.47305 L426.3475,55.50866 L425.6701,46.34158 C425.2532,43.2596 424.6072,40.20847 423.6601,37.24284 C422.5576,33.79063 421.047,30.45428 418.7948,27.58926 L417.2885,26.12033 L416.6871,25.86327 L415.8069,25.81903 L413.9864,26.05683 L408.5915,27.76442 L401.63,31.32322 L397.5514,33.99245 L391.7491,38.69637 L382.4404,47.34283 L368.3643,61.46897 C367.4787,62.40462 366.1128,62.99305 364.8245,62.99398 C363.5366,63.02934 362.1547,62.4796 361.243,61.56927 C360.3074,60.68362 359.719,59.31774 359.718,58.02941 C359.6827,56.74156 360.2324,55.35965 361.1428,54.448 z" stroke="Black" stroke-width="0" fill="#000000" fill-opacity="1" />
  <path d="M428.1111,131.8162 L431.0742,142.3096 L434.817,153.6495 L438.9832,163.7418 L443.4835,172.9207 L448.0284,180.3841 C449.5434,182.6119 451.0583,184.6171 452.952,186.6221 C454.8457,188.6272 457.1182,190.6323 460.8544,192.1473 C464.5907,193.6622 469.7908,194.6871 469.5235,195.5782 C469.2561,196.4694 463.5213,197.2269 459.941,197.5833 C456.3607,197.9398 454.9348,197.8952 455.5809,198.92 C456.227,199.9449 458.945,202.0391 461.2397,203.5095 C463.5345,204.9799 465.4059,205.8265 467.9678,206.1829 C470.5298,206.5394 473.7822,206.4057 473.5817,207.1632 C473.3812,207.9207 469.7277,209.5693 466.6311,211.3071 C463.5345,213.0448 460.9947,214.8717 459.1678,216.2753 C457.3409,217.6788 456.227,218.6591 456.5612,219.8176 C456.8954,220.9761 458.6777,222.3128 460.5268,223.3376 C462.376,224.3625 464.2919,225.0754 466.2747,225.3873 C468.2576,225.6992 470.3072,225.6101 472.4742,225.0472 C474.6411,224.4844 476.9253,223.4478 477.4823,224.3835 C478.0393,225.3192 476.869,228.2272 475.415,230.7729 C473.9609,233.3186 472.2232,235.5019 469.6611,238.1085 C467.0991,240.7151 463.7127,243.7451 458.4103,247.2651 C453.108,250.7852 445.8896,254.7953 438.5822,258.1372 C431.2747,261.479 423.8781,264.1524 415.1671,266.7591 C406.4561,269.3657 396.4306,271.9055 379.0532,272.7075 C376.5893,273.0727 373.6536,270.3961 373.7903,267.9091 C373.4251,265.4452 376.1018,262.5095 378.5888,262.6462 C395.1663,261.8811 403.8806,259.6231 412.2798,257.1098 C420.7201,254.5842 427.462,252.1474 434.3933,248.9776 C441.2107,245.8599 448.1098,242.0138 452.8397,238.8739 L459.4352,233.9185 L456.0967,232.393 L452.5509,230.1761 L450.0751,228.0092 L447.9666,225.2085 L446.9963,222.9919 L446.4804,220.1129 L446.6706,217.1454 L447.459,214.6266 L449.6413,211.3025 L451.8499,209.1891 L449.4681,207.1556 L448.373,206.0671 L447.0468,204.2731 L446.2028,202.7014 L445.4908,200.1805 L445.5578,196.4817 L446.2917,194.2206 L445.6296,193.5378 C442.9222,190.6712 440.5703,187.4819 438.4409,184.1614 C436.1292,180.5566 434.0799,176.7971 432.1844,172.9591 L426.4225,159.8735 L421.413,145.1566 L418.394,134.4664 C417.4996,132.1417 419.4707,128.6924 421.9275,128.2827 C424.2522,127.3884 427.7015,129.3594 428.1111,131.8162 z" stroke="Black" stroke-width="0" fill="#000000" fill-opacity="1" />
  <path d="M278.0068,242.7323 L276.3378,242.7022 C273.6509,242.55 271.4284,242.0628 268.8253,240.982 C266.2221,239.9012 263.2385,238.2267 260.6353,236.1411 C258.0323,234.0556 255.8097,231.559 253.8916,228.4688 C251.9735,225.3785 250.3599,221.6946 249.5531,218.9088 C248.7463,216.123 248.7463,214.2354 249.0964,212.8196 C249.4465,211.4039 250.1468,210.4601 252.1714,209.4097 L257.0783,207.4821 C264.1042,204.9961 271.0803,203.7084 278.0068,203.619 C284.9334,203.7084 291.9095,204.9961 298.9354,207.4821 L303.8423,209.4097 C305.8669,210.4601 306.5671,211.4039 306.9173,212.8196 C307.2674,214.2354 307.2674,216.123 306.4606,218.9088 C305.6538,221.6946 304.0402,225.3785 302.1221,228.4688 C300.204,231.559 297.9814,234.0556 295.3783,236.1411 C292.7752,238.2267 289.7915,239.9012 287.1884,240.982 C284.5853,242.0628 282.3628,242.55 279.6759,242.7022 z" stroke="Black" stroke-width="0" fill="#000000" fill-opacity="1" />
  <path d="M194.8709,54.448 C195.7813,55.35965 196.331,56.74156 196.2956,58.02941 C196.2947,59.31774 195.7063,60.68362 194.7706,61.56927 C193.859,62.4796 192.4771,63.02934 191.1892,62.99398 C189.9009,62.99305 188.535,62.40462 187.6494,61.46897 L173.5733,47.34283 L164.2645,38.69637 L158.4623,33.99245 L154.3837,31.32322 L147.4222,27.76442 L142.0273,26.05683 L140.2068,25.81903 L139.3266,25.86327 L138.7252,26.12033 L137.2189,27.58926 C134.9666,30.45428 133.4561,33.79063 132.3536,37.24284 C131.4065,40.20847 130.7605,43.2596 130.3436,46.34158 L129.6662,55.50866 L129.777,65.47305 C130.0802,72.11122 130.8127,78.73484 131.931,85.28616 C133.2368,92.93541 135.0686,100.4861 137.0414,107.9921 C137.9142,110.3249 135.9114,113.7558 133.4509,114.1427 C131.1181,115.0156 127.6871,113.0128 127.3002,110.5522 C123.4465,95.88937 121.4257,85.69115 120.3324,74.50105 C119.2392,63.31096 119.0736,51.12898 120.9791,41.17572 C122.8846,31.22245 126.8613,23.49789 130.9733,19.50767 C135.0853,15.51745 139.3325,15.26157 143.972,16.17514 C148.6114,17.08872 153.6432,19.17175 159.5271,22.66826 C165.4109,26.16478 172.147,31.07478 194.8709,54.448 z" stroke="Black" stroke-width="0" fill="#000000" fill-opacity="1" />
  <path d="M127.9026,131.8162 C128.3122,129.3594 131.7615,127.3884 134.0862,128.2827 C136.543,128.6924 138.514,132.1417 137.6196,134.4664 L134.6007,145.1566 L129.5912,159.8735 L123.8292,172.9591 C121.9338,176.7971 119.8844,180.5566 117.5728,184.1614 C115.4434,187.4819 113.0915,190.6712 110.3841,193.5378 L109.7219,194.2206 L110.4559,196.4817 L110.5229,200.1805 L109.8109,202.7014 L108.9668,204.2731 L107.6407,206.0671 L106.5456,207.1556 L104.1638,209.1891 L106.3724,211.3025 L108.5547,214.6266 L109.3431,217.1454 L109.5333,220.1129 L109.0174,222.9919 L108.0471,225.2085 L105.9385,228.0092 L103.4628,230.1761 L99.91698,232.393 L96.5785,233.9185 L103.174,238.8739 C107.9039,242.0138 114.803,245.8599 121.6203,248.9776 C128.5517,252.1474 135.2935,254.5842 143.7339,257.1098 C152.1331,259.6231 160.8474,261.8811 177.4249,262.6462 C179.9119,262.5095 182.5885,265.4452 182.2233,267.9091 C182.3601,270.3961 179.4244,273.0727 176.9605,272.7075 C159.5831,271.9055 149.5576,269.3657 140.8465,266.7591 C132.1355,264.1524 124.739,261.479 117.4315,258.1372 C110.1241,254.7953 102.9057,250.7852 97.60336,247.2651 C92.30099,243.7451 88.91461,240.7151 86.35255,238.1085 C83.79048,235.5019 82.05273,233.3186 80.59872,230.7729 C79.1447,228.2272 77.97441,225.3192 78.53139,224.3835 C79.08836,223.4478 81.37259,224.4844 83.53952,225.0472 C85.70646,225.6101 87.75611,225.6992 89.73893,225.3873 C91.72174,225.0754 93.63773,224.3625 95.48686,223.3376 C97.33601,222.3128 99.11832,220.9761 99.4525,219.8176 C99.78668,218.6591 98.67274,217.6788 96.84588,216.2753 C95.01901,214.8717 92.47922,213.0448 89.38259,211.3071 C86.28596,209.5693 82.63248,207.9207 82.43198,207.1632 C82.23147,206.4057 85.48392,206.5394 88.04586,206.1829 C90.6078,205.8265 92.47922,204.9799 94.77395,203.5095 C97.06866,202.0391 99.78668,199.9449 100.4328,198.92 C101.0788,197.8952 99.65301,197.9398 96.07269,197.5833 C92.49235,197.2269 86.75755,196.4694 86.4902,195.5782 C86.22285,194.6871 91.42297,193.6622 95.15925,192.1473 C98.89553,190.6323 101.168,188.6272 103.0617,186.6221 C104.9554,184.6171 106.4703,182.6119 107.9853,180.3841 L112.5302,172.9207 L117.0305,163.7418 L121.1966,153.6495 L124.9395,142.3096 z" stroke="Black" stroke-width="0" fill="#000000" fill-opacity="1" />
  <path d="M225.518,110.4432 C229.3846,109.8352 231.9623,109.4461 235.0264,109.4218 C238.0904,109.3975 241.6408,109.738 245.094,110.8323 C248.5471,111.9266 251.903,113.7747 254.6753,116.3038 C257.4475,118.8329 259.6361,122.0428 260.852,125.2528 C262.068,128.4628 262.3111,131.6728 261.9707,134.9071 C261.6302,138.1413 260.7061,141.3999 259.1011,144.6099 C257.4962,147.8199 255.2103,150.9812 252.0976,154.2885 C248.9849,157.5957 245.0453,161.0489 241.4706,164.1373 C237.8959,167.2257 234.6859,169.9493 232.0352,173.062 C229.3846,176.1747 227.2932,179.6765 225.9801,183.0567 C224.6669,186.4369 224.1319,189.6955 224.0103,192.8811 C223.8887,196.0668 224.1805,199.1795 224.8614,202.0247 C225.5423,204.8699 226.6123,207.4476 228.0228,209.6849 L232.0352,215.4239 C232.8864,217.0289 232.8377,218.3421 232.1082,219.3877 C231.3787,220.4334 229.9682,221.2116 227.3905,221.1143 C224.8128,221.017 221.0678,220.0443 216.0826,218.415 C211.0975,216.7857 204.8721,214.4998 198.525,211.4844 C192.1781,208.469 185.7095,204.724 179.8245,200.2495 C173.9396,195.775 168.6382,190.5709 164.8933,185.4155 C161.1483,180.2601 158.9597,175.1533 157.8168,170.5329 C156.6738,165.9125 156.5765,161.7784 157.0143,157.8146 C157.452,153.8508 158.4247,150.0572 160.8322,145.8745 C163.2397,141.6918 167.0819,137.12 172.0671,132.8643 C177.0523,128.6087 183.1804,124.6692 189.9165,121.3619 C196.6526,118.0547 203.9966,115.3797 210.2463,113.6288 C216.496,111.8779 221.6515,111.0511 225.518,110.4432 z M186.5268,160.2961 C187.0152,162.4077 187.8671,164.4643 189.0149,166.3029 L184.5753,170.7424 L190.9338,177.101 L195.3734,172.6614 C197.2119,173.8091 199.2685,174.661 201.3802,175.1495 L201.3802,181.428 L210.3725,181.428 L210.3725,175.1495 C212.4841,174.661 214.5407,173.8091 216.3792,172.6614 L220.8188,177.101 L227.1773,170.7424 L222.7377,166.3029 C223.8855,164.4643 224.7374,162.4077 225.2259,160.2961 L231.5044,160.2961 L231.5044,151.3038 L225.2259,151.3038 C224.7374,149.1921 223.8855,147.1356 222.7377,145.297 L227.1773,140.8574 L220.8188,134.4989 L216.3792,138.9385 C214.5407,137.7907 212.4841,136.9389 210.3725,136.4504 L210.3725,130.1719 L201.3802,130.1719 L201.3802,136.4504 C199.2685,136.9389 197.2119,137.7907 195.3734,138.9385 L190.9338,134.4989 L184.5753,140.8574 L189.0149,145.297 C187.8671,147.1356 187.0152,149.1921 186.5268,151.3038 L180.2482,151.3038 L180.2482,160.2961 z" stroke="Black" stroke-width="0" fill="#000000" fill-opacity="1" />
  <path d="M216.6671,151.3937 C217.7618,153.8834 217.8559,157.3779 216.6222,160.3145 C215.3885,163.2511 212.8269,165.6298 210.2825,166.5907 C207.7928,167.6854 204.2984,167.7796 201.3618,166.5458 C198.4252,165.3121 196.0464,162.7505 195.0856,160.2062 C193.9908,157.7165 193.8967,154.222 195.1304,151.2854 C196.3641,148.3488 198.9257,145.97 201.4701,145.0092 C203.9598,143.9145 207.4542,143.8203 210.3909,145.054 C213.3275,146.2878 215.7062,148.8494 216.6671,151.3937 z" stroke="Black" stroke-width="0" fill="#000000" fill-opacity="1" />
  <path d="M330.4957,110.4432 C334.3622,111.0511 339.5176,111.8779 345.7674,113.6288 C352.0171,115.3797 359.3611,118.0547 366.0972,121.3619 C372.8333,124.6692 378.9614,128.6087 383.9466,132.8643 C388.9318,137.12 392.774,141.6918 395.1815,145.8745 C397.589,150.0572 398.5617,153.8508 398.9994,157.8146 C399.4372,161.7784 399.3399,165.9125 398.1969,170.5329 C397.054,175.1533 394.8654,180.2601 391.1204,185.4155 C387.3755,190.5709 382.0741,195.775 376.1891,200.2495 C370.3042,204.724 363.8356,208.469 357.4886,211.4844 C351.1416,214.4998 344.9162,216.7857 339.9311,218.415 C334.9459,220.0443 331.2009,221.017 328.6232,221.1143 C326.0455,221.2116 324.635,220.4334 323.9055,219.3877 C323.176,218.3421 323.1273,217.0289 323.9785,215.4239 L327.9909,209.6849 C329.4014,207.4476 330.4713,204.8699 331.1523,202.0247 C331.8332,199.1795 332.125,196.0668 332.0034,192.8811 C331.8818,189.6955 331.3468,186.4369 330.0336,183.0567 C328.7205,179.6765 326.6291,176.1747 323.9785,173.062 C321.3278,169.9493 318.1178,167.2257 314.5431,164.1373 C310.9683,161.0489 307.0288,157.5957 303.9161,154.2885 C300.8034,150.9812 298.5175,147.8199 296.9125,144.6099 C295.3076,141.3999 294.3835,138.1413 294.043,134.9071 C293.7026,131.6728 293.9457,128.4628 295.1617,125.2528 C296.3776,122.0428 298.5662,118.8329 301.3384,116.3038 C304.1107,113.7747 307.4666,111.9266 310.9197,110.8323 C314.3729,109.738 317.9233,109.3975 320.9873,109.4218 C324.0514,109.4461 326.6291,109.8352 330.4957,110.4432 z M369.4869,160.2961 L375.7654,160.2961 L375.7654,151.3038 L369.4869,151.3038 C368.9984,149.1921 368.1466,147.1356 366.9988,145.297 L371.4384,140.8574 L365.0799,134.4989 L360.6403,138.9385 C358.8017,137.7907 356.7452,136.9389 354.6335,136.4504 L354.6335,130.1719 L345.6412,130.1719 L345.6412,136.4504 C343.5296,136.9389 341.473,137.7907 339.6345,138.9385 L335.1949,134.4989 L328.8363,140.8574 L333.2759,145.297 C332.1282,147.1356 331.2763,149.1921 330.7878,151.3038 L324.5093,151.3038 L324.5093,160.2961 L330.7878,160.2961 C331.2763,162.4077 332.1282,164.4643 333.2759,166.3029 L328.8363,170.7424 L335.1949,177.101 L339.6345,172.6614 C341.473,173.8091 343.5296,174.661 345.6412,175.1495 L345.6412,181.428 L354.6335,181.428 L354.6335,175.1495 C356.7452,174.661 358.8017,173.8091 360.6403,172.6614 L365.0799,177.101 L371.4384,170.7424 L366.9988,166.3029 C368.1466,164.4643 368.9984,162.4077 369.4869,160.2961 z" stroke="Black" stroke-width="0" fill="#000000" fill-opacity="1" />
  <path d="M339.3466,151.3937 C340.3075,148.8494 342.6862,146.2878 345.6228,145.054 C348.5594,143.8203 352.0539,143.9145 354.5436,145.0092 C357.088,145.97 359.6495,148.3488 360.8833,151.2854 C362.117,154.222 362.0229,157.7165 360.9281,160.2062 C359.9673,162.7505 357.5885,165.3121 354.6519,166.5458 C351.7153,167.7796 348.2209,167.6854 345.7311,166.5907 C343.1868,165.6298 340.6252,163.2511 339.3915,160.3145 C338.1578,157.3779 338.2519,153.8834 339.3466,151.3937 z" stroke="Black" stroke-width="0" fill="#000000" fill-opacity="1" />
  <path d="M212.2805,43.15357 C234.1893,32.47994 256.0981,27.14312 278.0068,27.14312 C299.9156,27.14312 321.8244,32.47994 343.7332,43.15357 C346.071,44.01304 347.3661,47.76879 346.0549,49.8865 C345.1954,52.22427 341.4397,53.51933 339.322,52.20817 C318.6015,42.11349 298.28,37.21511 278.0068,37.21511 C257.7337,37.21511 237.4122,42.11349 216.6917,52.20817 C214.574,53.51933 210.8183,52.22427 209.9588,49.8865 C208.6476,47.76879 209.9427,44.01304 212.2805,43.15357 z" stroke="Black" stroke-width="0" fill="#000000" fill-opacity="1" />
  <path d="M2.890102,260.5857 L2.890102,251.3772 C2.890102,250.048 3.188144,249.0991 3.784227,248.5304 C4.380311,247.9617 5.329247,247.6774 6.631039,247.6774 L29.2822,247.6774 C30.6114,247.6774 31.56719,247.9686 32.14957,248.5509 C32.73195,249.1333 33.02314,250.0754 33.02314,251.3772 L33.02314,261.1406 L32.75593,264.8816 C32.57779,265.9367 32.23521,266.8822 31.7282,267.7181 L30.11466,269.6091 L27.95643,270.8629 L25.45905,271.2946 C22.44437,271.2946 20.23818,269.7873 18.84047,266.7726 C17.57979,270.7328 15.12694,272.7129 11.48192,272.7129 C9.796446,272.7129 8.278832,272.2812 6.92908,271.4179 C5.579329,270.5546 4.582431,269.3899 3.938387,267.9236 L3.12648,264.7582 z M16.27114,260.1335 L16.27114,253.7821 L7.473777,253.7821 L7.473777,260.339 C7.473777,264.4636 8.96056,266.5259 11.93412,266.5259 C13.45516,266.5259 14.55826,265.9915 15.24341,264.9227 C15.92857,263.8539 16.27114,262.2574 16.27114,260.1335 z M20.64927,259.3729 C20.64927,260.894 20.79315,262.069 21.08092,262.898 C21.36868,263.7271 21.91681,264.3608 22.72529,264.7993 C23.30082,265.1419 23.94486,265.3132 24.65742,265.3132 C26.17846,265.3132 27.18906,264.7719 27.68922,263.6894 C28.18938,262.6069 28.43946,260.9557 28.43946,258.7357 L28.43946,253.7821 L20.64927,253.7821 z" stroke="Black" stroke-width="0" fill="#000000" fill-opacity="1" />
  <path d="M6.302165,236.7218 L10.08421,235.283 L10.08421,223.0324 L6.219947,221.5936 L3.167589,220.1548 C2.640022,219.7574 2.376238,219.1065 2.376238,218.2021 C2.376238,217.4347 2.657151,216.7564 3.218976,216.1672 C3.780802,215.578 4.417994,215.2833 5.130553,215.2833 L6.404938,215.4889 L8.234297,216.1672 L27.80227,223.8752 L29.8269,224.6665 L31.78986,225.6531 L33.05397,227.0303 C33.37599,227.599 33.537,228.3012 33.537,229.1371 C33.537,229.9867 33.37599,230.6959 33.05397,231.2645 L31.81042,232.6417 L30.17633,233.5255 L27.84338,234.4402 L8.398734,242.3126 C6.918803,242.9293 5.843112,243.2376 5.171662,243.2376 C4.472806,243.2376 3.832188,242.9464 3.249808,242.364 C2.667428,241.7816 2.376238,241.0793 2.376238,240.2572 L2.63317,239.0239 L3.332026,238.1606 L4.68863,237.4104 z M14.66788,224.6357 L14.66788,233.6386 L27.10341,229.096 z" stroke="Black" stroke-width="0" fill="#000000" fill-opacity="1" />
</svg>