<?xml version="1.0" standalone="no"?>
<!DOCTYPE svg PUBLIC "-//W3C//DTD SVG 20010904//EN"
 "http://www.w3.org/TR/2001/REC-SVG-20010904/DTD/svg10.dtd">
<svg version="1.0" xmlns="http://www.w3.org/2000/svg"
 width="376.680261pt" height="385.700028pt" viewBox="0 0 376.680261 385.700028"
 preserveAspectRatio="xMidYMid meet">
<metadata>
Created by potrace 1.12, written by Peter Selinger 2001-2015
</metadata>
<g transform="translate(-8.319739,474.700028) scale(0.100000,-0.100000)"
fill="#000000" stroke="none">
<path d="M2461 4729 c-11 -31 -8 -33 18 -17 18 11 23 11 30 -1 10 -15 20 -16
226 -25 96 -4 155 -3 165 4 8 5 13 10 10 11 -36 7 -65 10 -120 13 -61 2 -205
14 -260 21 -14 1 -33 6 -42 10 -13 5 -20 1 -27 -16z"/>
<path d="M2126 4673 c-4 -16 -9 -36 -12 -45 -9 -30 21 -21 33 10 11 27 11 27
6 -5 -5 -29 -3 -33 16 -33 11 0 21 5 21 11 0 5 4 8 9 5 8 -6 21 15 21 35 0 14
-38 11 -42 -3 -3 -7 -11 2 -19 20 -17 39 -25 40 -33 5z"/>
<path d="M1987 4655 c-112 -23 -121 -29 -47 -35 52 -4 66 -2 72 10 5 12 7 12
7 -2 1 -14 10 -18 40 -18 37 0 50 13 51 53 0 10 -44 7 -123 -8z"/>
<path d="M3178 4663 c12 -2 32 -2 45 0 12 2 2 4 -23 4 -25 0 -35 -2 -22 -4z"/>
<path d="M2870 4648 c0 -2 -4 -18 -10 -36 -7 -28 -7 -33 5 -28 10 4 15 -1 15
-14 0 -15 7 -20 29 -20 25 0 28 3 23 25 -3 19 -7 23 -17 15 -16 -13 -31 6 -27
32 2 9 -2 19 -8 23 -5 3 -10 5 -10 3z"/>
<path d="M3075 4641 c-14 -14 0 -21 43 -21 41 1 44 2 27 13 -20 12 -62 17 -70
8z"/>
<path d="M2394 4615 l-22 -23 22 -6 c11 -2 113 -10 225 -17 210 -12 220 -11
221 27 0 13 11 11 -195 28 -185 16 -187 16 -197 1 -5 -6 -8 -5 -8 3 0 19 -23
12 -46 -13z"/>
<path d="M3268 4632 c-10 -2 -18 -12 -18 -22 0 -10 -5 -22 -11 -26 -8 -5 -10
2 -6 22 l5 29 -20 -25 c-11 -14 -27 -24 -35 -22 -8 2 -13 0 -10 -5 3 -4 -8 -8
-25 -7 -16 0 -33 6 -37 12 -13 21 -65 17 -100 -9 l-33 -24 54 -6 c29 -4 92 -9
141 -13 l87 -6 0 25 c0 18 5 25 20 25 13 0 20 -7 20 -20 0 -17 3 -19 19 -11
16 9 17 15 7 45 -11 35 -26 45 -58 38z"/>
<path d="M3350 4607 c0 -19 16 -31 24 -18 3 5 -1 14 -9 21 -12 10 -15 10 -15
-3z"/>
<path d="M3480 4561 c-5 -11 -10 -28 -10 -38 0 -10 -6 -29 -13 -43 -16 -31 -1
-84 22 -75 7 3 20 0 27 -6 11 -9 19 -8 32 5 20 17 41 20 89 10 30 -6 30 -6 20
-47 -5 -23 -14 -48 -20 -54 -14 -19 8 -16 27 3 27 26 41 57 27 62 -6 2 -11 11
-11 20 0 14 2 15 10 2 5 -8 12 -11 16 -7 4 3 1 13 -5 21 -7 8 -11 22 -9 32 2
14 -7 18 -52 22 -30 2 -57 6 -60 8 -2 3 -3 21 -1 40 2 31 -1 36 -33 49 -44 19
-43 19 -56 -4z"/>
<path d="M3350 4479 c-1 -8 -5 -33 -9 -56 -5 -24 -5 -43 -1 -43 8 0 22 101 15
109 -3 2 -5 -2 -5 -10z"/>
<path d="M950 4470 c14 -4 36 -8 50 -8 l25 0 -25 8 c-14 4 -36 8 -50 8 l-25 0
25 -8z"/>
<path d="M1130 4410 c0 -24 5 -40 15 -44 11 -4 14 -18 12 -50 -3 -50 -2 -51
68 -62 l48 -7 -7 67 c-4 36 -6 66 -4 66 2 0 35 11 73 25 l70 24 -42 0 c-24 1
-43 -3 -43 -9 0 -5 -5 -10 -11 -10 -5 0 -7 6 -3 13 4 6 -5 1 -21 -13 -16 -15
-26 -19 -23 -10 7 19 -18 46 -26 27 -3 -9 -7 -8 -15 3 -6 9 -28 16 -51 17 -40
1 -40 1 -40 -37z"/>
<path d="M1455 4402 c-5 -5 -49 -24 -97 -43 -49 -18 -86 -34 -84 -37 3 -2 24
-5 48 -6 36 -2 43 -6 42 -23 0 -13 4 -19 13 -16 7 3 10 10 6 16 -3 6 -1 7 5 3
17 -10 58 21 72 54 14 33 10 66 -5 52z"/>
<path d="M1750 4351 c8 -45 23 -67 50 -76 28 -9 32 -33 8 -55 -12 -11 -19 -23
-15 -26 14 -14 349 -46 361 -34 6 6 17 4 28 -7 13 -12 21 -13 31 -4 8 6 16 8
20 5 12 -12 42 15 53 48 10 30 14 33 50 33 l39 0 1 -55 1 -55 79 -11 c43 -7
112 -15 152 -19 l72 -7 0 44 c0 41 3 45 49 76 28 17 53 32 58 32 4 0 19 9 32
19 14 10 31 17 38 14 7 -3 13 -1 13 4 0 5 -60 15 -132 22 -73 6 -152 14 -175
17 -30 4 -43 1 -43 -7 0 -8 -4 -8 -13 -1 -7 6 -62 16 -122 22 -61 6 -130 12
-155 15 -25 2 -128 12 -229 20 -101 9 -200 18 -221 21 l-38 5 8 -40z m459 -63
c-12 -20 -14 -21 -17 -5 -2 10 2 25 9 34 18 21 23 0 8 -29z m301 -32 c0 -8 -4
-18 -10 -21 -5 -3 -10 3 -10 14 0 12 5 21 10 21 6 0 10 -6 10 -14z"/>
<path d="M3830 4375 c0 -8 5 -15 10 -15 6 0 10 7 10 15 0 8 -4 15 -10 15 -5 0
-10 -7 -10 -15z"/>
<path d="M1082 4363 c-26 -5 -40 -29 -25 -44 9 -9 69 6 87 22 19 18 -4 21 -29
5 -26 -17 -26 -17 -15 3 6 12 9 20 8 20 -2 -1 -13 -4 -26 -6z"/>
<path d="M3357 4330 c-6 -22 18 -49 25 -28 6 17 -2 48 -12 48 -4 0 -10 -9 -13
-20z"/>
<path d="M1030 4310 c0 -5 -6 -7 -14 -4 -15 6 -32 -13 -22 -23 8 -9 56 14 56
27 0 5 -4 10 -10 10 -5 0 -10 -4 -10 -10z"/>
<path d="M843 4244 c-18 -20 -33 -30 -33 -23 0 22 -27 -23 -35 -58 -5 -27 -10
-31 -24 -24 -56 30 -55 -30 4 -459 9 -63 18 -131 21 -150 4 -26 2 -31 -5 -20
-15 22 -5 -47 13 -91 8 -18 24 -108 35 -199 37 -278 40 -292 65 -285 11 2 15
2 8 -1 -10 -5 -10 -9 -1 -20 9 -11 8 -18 -2 -31 -13 -16 -12 -17 4 -4 10 8 15
21 12 30 -5 13 -4 13 12 -1 24 -21 418 -119 537 -133 33 -4 70 -11 82 -16 14
-5 26 -4 29 1 4 6 -2 10 -11 10 -9 0 -36 11 -59 24 -23 14 -63 30 -89 37 -47
12 -57 31 -19 37 11 2 25 14 31 28 12 25 36 31 61 15 11 -7 5 -13 -25 -27 -35
-15 -36 -18 -16 -21 13 -3 30 1 39 9 14 11 16 11 11 -3 -5 -13 4 -19 40 -29
26 -7 56 -14 66 -17 15 -4 18 -2 11 13 -19 47 -19 58 0 51 9 -4 50 -14 89 -23
166 -36 239 -57 254 -72 10 -10 40 -28 67 -42 27 -14 56 -31 63 -37 7 -7 23
-13 35 -12 21 1 20 2 -3 10 -18 6 -11 7 25 3 28 -3 73 0 100 5 40 8 67 6 139
-11 69 -16 94 -18 108 -9 28 17 38 13 49 -19 8 -22 17 -30 35 -30 23 0 24 3
26 68 1 37 3 83 3 102 1 19 -3 45 -8 57 -7 16 -6 26 7 38 9 9 16 31 16 48 0
18 5 88 10 157 7 82 6 128 0 134 -13 13 -13 73 0 78 14 4 17 24 25 166 6 89 5
122 -4 122 -6 0 -17 -11 -23 -25 -9 -21 -18 -25 -42 -23 -28 3 -31 7 -34 41
l-3 38 59 -7 59 -6 0 120 0 121 -64 7 c-70 7 -83 19 -65 60 7 14 8 24 2 24 -5
0 -13 -17 -16 -39 l-6 -38 -44 5 -43 5 9 -34 c9 -30 33 -57 74 -84 8 -5 18
-23 22 -40 6 -27 5 -28 -7 -13 -8 9 -26 22 -41 27 -24 9 -29 7 -47 -23 -27
-43 -52 -116 -45 -127 3 -5 1 -9 -4 -9 -13 0 -32 -112 -32 -188 l0 -61 -45 13
c-33 10 -45 11 -45 3 0 -7 -4 -6 -9 2 -8 12 -11 8 -17 -15 -7 -28 -8 -28 -13
-6 -6 23 2 191 12 262 5 31 3 35 -18 36 -17 1 -25 -5 -29 -22 -6 -24 -50 -53
-62 -42 -11 11 18 94 42 119 31 33 45 99 20 99 -12 0 -16 -10 -17 -42 -2 -31
-3 -35 -6 -15 -4 25 -7 27 -21 15 -13 -11 -15 -11 -8 2 4 8 0 6 -9 -5 -31 -38
-58 -147 -63 -252 l-4 -102 -23 15 c-18 12 -24 12 -28 2 -4 -10 -8 -10 -16 2
-8 12 -14 13 -29 3 -18 -11 -20 -7 -25 45 -3 31 -2 84 2 117 11 75 -1 92 -35
50 -13 -16 -24 -37 -24 -45 -1 -8 -7 -26 -14 -39 -9 -17 -15 -20 -21 -11 -4 7
-4 15 1 19 5 3 15 18 21 34 11 23 10 27 -3 27 -14 0 -15 7 -10 41 10 63 61
121 80 90 3 -5 -1 -11 -9 -15 -21 -8 -19 -31 4 -33 25 -2 55 32 47 52 -3 9 -2
14 3 11 12 -8 22 20 15 39 -4 8 -10 12 -15 9 -5 -3 -9 4 -9 15 0 11 -8 25 -17
30 -10 6 -13 11 -6 11 7 0 24 -17 37 -37 20 -29 27 -33 32 -20 3 9 14 19 23
22 11 3 21 23 27 55 l11 50 -36 10 c-20 5 -53 10 -73 10 l-38 0 0 -46 c0 -38
-4 -47 -21 -51 -12 -3 -18 -11 -15 -19 5 -14 -14 -38 -43 -54 -33 -17 -66
-143 -66 -252 0 -54 -2 -98 -5 -98 -3 0 -23 5 -45 10 -27 6 -42 5 -46 -2 -16
-25 -32 100 -22 176 5 42 6 76 3 76 -14 0 -58 -57 -64 -83 -9 -38 -26 -24 -25
21 1 49 20 97 39 97 9 0 15 9 15 25 0 24 11 40 28 40 4 0 2 -8 -4 -18 -9 -14
-8 -25 5 -48 10 -16 15 -21 12 -12 -3 9 -1 18 3 20 5 2 20 28 34 58 l26 55
-21 22 c-30 32 -77 30 -110 -4 -63 -68 -93 -174 -86 -308 l5 -93 -29 10 c-16
6 -37 8 -48 5 -32 -8 -54 75 -45 176 l7 82 -26 -38 c-14 -21 -26 -40 -26 -43
0 -3 -7 -12 -15 -20 -13 -14 -15 -11 -15 29 0 61 18 111 35 97 14 -11 25 6 25
40 0 10 8 21 18 25 14 5 15 4 5 -6 -15 -15 -17 -69 -4 -69 10 0 23 33 19 47
-2 4 7 20 20 33 40 42 43 56 22 75 -26 24 -74 23 -108 -1 -65 -47 -110 -205
-93 -325 5 -35 7 -67 4 -71 -2 -4 -15 -3 -29 2 -13 5 -28 9 -32 9 -23 -4 -32
6 -46 48 -9 26 -16 76 -16 112 l-1 66 -17 -34 c-26 -52 -42 -51 -42 3 0 61 16
102 34 87 15 -13 26 4 26 40 0 12 7 19 18 18 10 0 12 -3 5 -6 -7 -2 -13 -17
-12 -31 0 -23 3 -20 24 22 14 27 32 57 41 67 14 16 15 21 3 36 -13 16 -12 17
3 5 30 -23 53 -1 51 50 -1 39 -1 40 7 13 7 -29 8 -29 9 10 0 22 -4 47 -9 55
-7 11 -10 11 -10 2 0 -7 -5 -10 -11 -7 -6 4 -13 -2 -16 -14 -3 -12 -12 -21
-20 -21 -10 0 -9 5 5 20 20 22 19 70 -2 70 -22 0 -38 18 -46 51 -5 21 -7 -11
-4 -85 2 -83 7 -122 16 -128 8 -5 -1 -8 -24 -8 -94 0 -166 -135 -155 -288 3
-42 9 -88 13 -101 7 -23 6 -23 -35 -16 -35 6 -40 5 -35 -10 13 -33 84 -59 166
-59 43 -1 78 -3 78 -6 1 -3 3 -24 5 -47 l3 -43 -73 -41 c-75 -43 -86 -57 -84
-114 1 -17 3 -22 6 -12 2 9 9 15 14 12 5 -4 9 -2 9 4 0 6 6 8 14 5 18 -7 26
-39 19 -74 -5 -27 -6 -27 -46 -18 -23 5 -54 7 -69 4 -30 -6 -30 -5 -33 79 -3
91 -18 225 -25 225 -4 0 -11 16 -14 35 -5 27 -12 35 -28 35 -17 0 -18 2 -8 15
11 13 7 19 -11 17 -10 -2 -21 47 -14 58 4 6 13 10 20 10 11 0 15 15 14 63 -1
34 2 79 6 100 7 36 -6 53 -19 25 -4 -7 -4 -3 -2 9 2 11 -1 41 -6 65 -5 23 -9
54 -9 67 1 19 -2 21 -14 11 -15 -12 -55 -5 -55 11 0 5 8 9 18 9 19 0 42 18 42
32 0 5 -8 5 -17 0 -10 -5 -25 -8 -33 -7 -8 1 -21 3 -28 3 -8 1 -10 7 -5 15 4
6 8 19 9 27 1 8 2 25 3 38 1 18 5 22 21 17 15 -5 21 0 26 19 4 16 11 23 20 19
8 -3 20 -1 27 5 6 6 28 12 47 14 l35 3 -53 25 c-45 21 -53 29 -49 48 2 12 4
22 3 22 0 0 -16 -17 -33 -36z m-13 -75 c0 -13 -28 -18 -33 -6 -3 7 3 13 14 13
11 0 19 -3 19 -7z m-63 -95 c2 -10 0 -13 -3 -6 -3 6 -10 10 -15 6 -5 -3 -9 2
-9 11 0 23 24 13 27 -11z m95 -168 c7 4 8 2 4 -4 -12 -20 -26 -13 -25 11 1 17
2 18 6 4 2 -9 9 -14 15 -11z m1618 -236 c5 0 10 -5 10 -11 0 -5 -4 -7 -10 -4
-5 3 -10 -3 -10 -14 0 -23 16 -28 23 -8 6 16 14 7 22 -25 6 -24 4 -28 -26 -36
-29 -7 -35 -14 -48 -58 -15 -54 -41 -100 -41 -72 0 8 7 32 15 52 9 22 11 36 5
36 -16 0 -5 88 14 108 9 10 16 32 17 48 0 27 1 28 9 7 5 -13 14 -23 20 -23z
m-349 -173 c-16 -16 -26 0 -10 19 9 11 15 12 17 4 2 -6 -1 -17 -7 -23z m-661
-62 c48 -33 178 -47 199 -21 18 21 28 20 34 -5 3 -11 19 -25 36 -32 17 -6 31
-14 31 -18 0 -4 -13 -20 -29 -35 -35 -34 -71 -113 -71 -155 0 -16 -4 -29 -10
-29 -12 0 -12 1 4 76 7 34 20 72 29 85 21 29 22 69 2 69 -21 0 -37 -37 -30
-70 5 -21 2 -31 -11 -38 -11 -6 -18 -26 -21 -58 -4 -41 -1 -53 19 -75 12 -15
39 -30 58 -34 19 -3 43 -9 53 -11 14 -5 17 2 17 38 0 24 7 71 17 103 9 33 16
74 15 90 -1 23 1 26 8 15 8 -13 10 -12 10 3 0 13 8 17 33 17 18 0 38 5 45 12
16 16 15 6 -3 -28 -8 -16 -15 -23 -15 -16 0 9 -4 10 -19 0 -19 -12 -19 -12 2
-34 18 -18 29 -21 76 -18 31 2 58 9 60 15 2 6 6 7 10 3 3 -5 28 -19 54 -32 26
-12 45 -27 42 -32 -3 -6 1 -10 9 -10 10 0 13 -6 9 -17 -4 -10 -2 -14 5 -9 6 3
18 -4 26 -16 9 -12 16 -17 16 -10 0 19 46 33 75 22 20 -8 25 -6 25 6 0 9 -5
12 -12 8 -7 -4 -4 2 6 14 12 13 23 19 30 14 6 -5 22 -3 36 4 25 13 23 16 -25
28 -11 3 7 3 41 0 49 -5 64 -2 78 11 16 16 47 69 46 80 0 3 0 9 0 14 0 6 12 3
28 -5 15 -7 35 -14 45 -14 13 0 17 -8 17 -35 0 -37 -8 -43 -29 -22 -14 12 -13
7 2 -55 2 -7 2 -10 0 -5 -9 14 -21 7 -16 -11 6 -23 -21 -46 -77 -65 -53 -18
-61 -16 -84 25 -16 26 -20 28 -28 14 -12 -21 -28 -21 -28 1 0 12 -3 14 -11 6
-8 -8 -7 -17 3 -32 7 -11 15 -21 19 -21 11 0 -3 -59 -17 -64 -9 -3 -11 0 -7
12 6 14 5 15 -9 2 -8 -8 -15 -24 -14 -35 1 -11 -5 -19 -11 -18 -7 2 -13 -2
-13 -7 0 -6 -5 -10 -11 -10 -8 0 -7 5 1 15 18 21 10 24 -20 8 -14 -7 -20 -13
-13 -13 7 0 10 -7 7 -15 -5 -11 -2 -13 12 -8 16 6 17 5 4 -9 -10 -11 -17 -12
-22 -5 -8 13 -38 -9 -37 -27 0 -7 2 -6 6 2 2 6 9 12 14 12 4 0 6 -7 3 -15 -7
-18 -34 -20 -34 -2 0 9 -3 8 -9 -2 -6 -9 -19 -12 -42 -7 -19 4 -50 9 -69 11
-19 3 -57 9 -85 15 -27 5 -63 12 -79 14 -26 5 -58 25 -79 51 -5 6 -7 -2 -4
-17 5 -33 8 -32 -62 -13 -31 7 -74 18 -96 22 -34 7 -41 13 -46 38 -5 28 -5 29
-13 8 -4 -13 -14 -23 -21 -23 -36 0 -198 52 -219 71 -5 4 3 22 18 39 23 27 26
41 26 100 0 38 5 72 10 75 15 9 12 51 -5 65 -8 7 -15 16 -15 19 0 6 38 25 59
30 3 1 21 -10 41 -24z m1010 17 c0 -4 -4 -12 -10 -18 -8 -8 -17 -38 -19 -68
-1 -14 -31 15 -31 31 0 7 7 16 15 19 8 3 17 14 20 25 6 19 25 27 25 11z
m-1090 -72 c0 -16 -18 -40 -31 -40 -9 0 -20 71 -13 82 8 13 44 -21 44 -42z
m-30 -190 c0 -5 -6 -10 -14 -10 -8 0 -21 -3 -30 -6 -9 -3 -16 -1 -16 4 0 10
19 18 48 21 6 0 12 -3 12 -9z m-160 -44 c0 -9 -7 -12 -21 -9 -16 4 -17 8 -7
14 19 13 28 11 28 -5z m-142 -135 c13 -8 6 -14 -45 -45 -26 -15 -12 10 15 28
15 9 19 15 10 12 -10 -3 -20 -1 -23 4 -8 12 25 13 43 1z m1480 -106 c-2 -5 -8
-10 -15 -11 -6 -1 -9 4 -6 12 6 16 27 15 21 -1z m0 -86 c-2 -6 -8 -10 -13 -10
-5 0 -11 4 -13 10 -2 6 4 11 13 11 9 0 15 -5 13 -11z m-98 -24 c0 -8 -7 -15
-15 -15 -16 0 -20 12 -8 23 11 12 23 8 23 -8z"/>
<path d="M2476 3292 c-2 -4 6 -18 19 -30 26 -25 37 -18 24 16 -8 21 -33 30
-43 14z"/>
<path d="M1482 3240 c-72 -44 -92 -59 -92 -70 0 -9 168 -45 175 -38 7 7 -6
148 -14 148 -3 -1 -34 -18 -69 -40z"/>
<path d="M3582 4263 c-10 -10 -51 -56 -90 -103 -38 -47 -93 -107 -121 -134
-27 -27 -48 -53 -45 -58 3 -5 10 -6 15 -2 5 3 7 10 3 15 -3 5 0 8 8 7 7 -2 12
2 11 8 -1 6 6 11 16 10 11 -1 56 45 122 124 58 69 108 131 113 138 11 18 -9
15 -32 -5z"/>
<path d="M3360 4254 c0 -8 -4 -12 -10 -9 -5 3 -10 -1 -10 -10 0 -14 -3 -14
-30 0 -36 19 -51 19 -44 1 3 -7 23 -19 44 -26 37 -12 41 -12 59 11 24 29 27
49 6 49 -8 0 -15 -7 -15 -16z"/>
<path d="M2761 4214 c-18 -13 -20 -18 -10 -25 23 -14 88 -10 122 7 28 15 30
18 12 24 -37 13 -101 10 -124 -6z"/>
<path d="M3179 4223 c0 -5 0 -29 1 -55 1 -38 -2 -48 -14 -48 -20 0 -20 0 0
-38 14 -30 14 -33 -7 -62 -13 -16 -26 -30 -29 -30 -8 0 -33 -23 -80 -74 l-35
-37 30 15 c17 9 30 19 30 23 0 13 39 53 50 53 6 0 32 22 58 49 46 48 46 48 27
69 -12 13 -16 23 -9 27 7 5 7 11 -1 20 -6 8 -8 29 -4 54 4 28 3 41 -5 41 -6 0
-11 -3 -12 -7z"/>
<path d="M552 4143 c-12 -2 -20 -9 -17 -14 3 -5 -1 -6 -9 -3 -9 3 -16 1 -16
-6 0 -6 -4 -9 -9 -5 -5 3 -13 1 -16 -5 -14 -22 -69 -37 -103 -28 -18 5 -36 7
-41 4 -10 -7 3 -84 17 -98 5 -5 38 -13 73 -18 35 -5 85 -12 111 -16 40 -6 47
-4 51 12 4 17 5 17 6 2 0 -10 5 -18 11 -18 10 0 3 54 -11 81 -6 12 -29 19 -71
24 -69 8 -71 6 25 44 17 7 27 18 27 31 0 11 -1 19 -2 19 -2 -1 -13 -4 -26 -6z"/>
<path d="M2843 4110 c0 -25 2 -35 4 -22 2 12 2 32 0 45 -2 12 -4 2 -4 -23z"/>
<path d="M2274 4085 c-3 -14 -4 -36 -2 -50 4 -18 0 -25 -16 -28 -13 -3 -8 -5
13 -6 29 -1 32 1 21 14 -8 9 -11 30 -7 55 6 45 1 53 -9 15z"/>
<path d="M820 4084 c0 -17 22 -14 28 4 2 7 -3 12 -12 12 -9 0 -16 -7 -16 -16z"/>
<path d="M1483 4072 c-69 -25 -92 -42 -58 -42 8 0 15 5 15 11 0 8 12 9 38 5
94 -17 207 -33 211 -30 2 2 0 19 -3 39 -5 25 -12 35 -25 35 -10 0 -38 2 -62 5
-32 3 -63 -3 -116 -23z"/>
<path d="M1740 4069 c0 -4 6 -10 13 -13 10 -5 10 -7 0 -12 -7 -3 -13 -23 -13
-45 0 -36 3 -40 30 -45 38 -8 57 -29 41 -48 -9 -11 -3 -14 31 -19 46 -6 66 0
30 9 -30 8 -38 41 -16 65 13 15 14 19 3 19 -20 1 -54 49 -42 61 6 6 68 2 167
-11 87 -12 163 -19 169 -17 11 3 -72 17 -315 50 -54 8 -98 10 -98 6z"/>
<path d="M2389 3987 c5 -5 19 -7 32 -5 20 3 19 5 -9 9 -20 3 -29 2 -23 -4z"/>
<path d="M3342 3955 c-23 -25 -48 -45 -55 -45 -6 0 0 8 16 18 29 18 33 27 16
38 -6 3 -18 -2 -27 -11 -13 -14 -14 -16 -2 -10 8 4 6 -1 -5 -12 -11 -11 -23
-18 -28 -16 -4 2 -6 1 -5 -4 2 -4 -17 -28 -42 -53 -25 -25 -52 -55 -60 -67
-14 -20 -19 -21 -60 -13 -25 5 -60 9 -77 10 -29 0 -33 -3 -33 -25 0 -25 -14
-32 -37 -17 -15 10 22 72 43 72 8 0 14 5 14 10 0 16 -12 12 -42 -17 -27 -25
-28 -26 -28 -6 0 45 -10 52 -35 27 -13 -13 -25 -31 -27 -41 -2 -10 -11 -17
-20 -15 -11 2 -18 -8 -23 -30 -4 -18 -12 -39 -17 -45 -8 -10 -5 -13 10 -13 12
0 22 -8 25 -21 3 -12 10 -18 15 -15 6 3 12 0 15 -6 3 -7 5 -4 6 7 1 35 18 115
25 123 4 4 6 -20 5 -53 -3 -55 -1 -60 19 -63 16 -2 22 2 23 15 0 16 2 16 10
-3 8 -16 26 -23 77 -32 37 -6 84 -15 105 -21 35 -8 39 -7 47 12 8 21 9 21 11
2 1 -11 1 -36 1 -55 l-2 -35 14 30 c8 17 12 34 8 39 -3 5 2 6 12 3 10 -4 36
-8 59 -8 23 -1 33 -4 22 -6 -26 -7 -35 -21 -35 -55 0 -16 -4 -28 -10 -28 -5 0
-7 8 -3 18 5 15 4 16 -11 1 -9 -8 -18 -33 -19 -55 -2 -33 -5 -39 -24 -39 -33
0 -36 -9 -14 -46 11 -19 25 -55 31 -81 7 -26 20 -54 29 -62 17 -15 19 -10 45
81 16 54 29 108 30 121 0 12 7 22 14 22 6 0 12 11 12 25 0 16 -6 25 -16 25
-19 0 -9 39 15 57 15 11 15 12 -1 13 -14 0 -16 7 -11 38 7 46 13 54 13 19 0
-15 5 -27 10 -27 6 0 10 6 10 14 0 7 18 17 42 22 30 6 44 15 47 29 3 17 1 18
-13 6 -10 -9 -16 -10 -16 -2 0 6 -8 11 -19 11 -11 0 -22 10 -26 23 -6 21 -7
20 -21 -10 -8 -18 -19 -33 -24 -33 -13 0 -13 6 2 30 7 10 10 22 7 25 -4 3 -38
6 -77 8 -79 2 -88 11 -47 49 13 13 37 39 52 59 15 20 46 58 67 83 51 61 42 68
-12 11z m-85 -90 c-17 -19 -39 -35 -47 -35 -9 0 2 15 25 35 51 45 64 45 22 0z
m-167 -104 c-24 -7 -24 -7 8 -14 19 -4 32 -13 32 -22 0 -19 -16 -20 -24 0 -3
9 -18 15 -36 15 -16 0 -30 4 -30 9 0 10 24 19 55 19 15 0 14 -2 -5 -7z m231
-50 c-12 -8 -51 -4 -51 5 0 2 15 4 33 4 22 0 28 -3 18 -9z"/>
<path d="M941 3973 c0 -10 4 -27 9 -38 8 -19 9 -19 9 2 1 12 4 28 7 37 4 11 1
16 -10 16 -9 0 -16 -8 -15 -17z"/>
<path d="M2251 3948 c-1 -9 -9 -18 -18 -21 -10 -2 4 -7 30 -12 26 -4 51 -5 54
-1 4 3 -6 6 -21 6 -18 0 -29 7 -36 23 -6 16 -9 17 -9 5z"/>
<path d="M3536 3890 c-14 -22 -26 -42 -26 -45 0 -3 16 -5 35 -5 19 0 35 4 35
10 0 5 -7 7 -15 4 -18 -7 -19 4 -5 42 16 41 6 39 -24 -6z"/>
<path d="M2203 3750 c-7 -29 -7 -40 1 -40 6 0 3 -5 -6 -11 -24 -14 -23 -39 2
-39 14 0 20 7 21 23 l0 22 10 -23 c5 -13 13 -20 19 -17 12 7 13 35 3 61 -6 16
-7 16 -15 -2 -6 -14 -7 -13 -3 8 5 27 -2 58 -14 58 -4 0 -12 -18 -18 -40z"/>
<path d="M2866 3570 c-3 -8 -5 -31 -5 -50 1 -19 -2 -60 -6 -91 -6 -46 -5 -57
8 -62 11 -4 14 -2 11 8 -8 20 6 41 16 25 4 -7 25 11 58 52 27 35 48 65 45 68
-3 3 -28 -20 -55 -50 l-50 -55 5 43 c3 23 2 40 -3 37 -4 -2 -5 6 -3 18 6 29
-13 78 -21 57z"/>
<path d="M3211 3538 c-8 -13 -9 -24 -3 -30 6 -6 12 0 16 17 9 35 4 40 -13 13z"/>
<path d="M2820 3475 c-6 -19 -10 -43 -8 -52 4 -16 5 -16 15 2 6 11 14 35 18
53 9 44 -10 42 -25 -3z"/>
<path d="M3077 3254 c-4 -16 -9 -39 -13 -50 -5 -19 -1 -22 31 -26 40 -5 53 5
35 27 -6 8 -9 19 -5 24 4 7 -1 8 -11 4 -11 -4 -15 -2 -11 4 4 5 0 18 -7 28
-12 17 -13 16 -19 -11z"/>
<path d="M3354 3246 c-3 -9 -14 -16 -23 -16 -24 0 -51 -36 -51 -66 0 -22 2
-25 15 -14 12 10 15 10 15 -3 0 -22 66 -34 93 -18 10 7 20 11 20 9 28 -58 36
-63 128 -87 104 -26 99 -29 125 59 9 30 23 63 31 72 20 22 27 20 -157 48 -80
12 -155 24 -167 27 -15 3 -25 0 -29 -11z"/>
<path d="M2757 3199 c-8 -66 -9 -134 -2 -127 3 3 6 27 7 54 0 27 4 57 9 66 5
9 5 27 1 39 -7 18 -10 13 -15 -32z"/>
<path d="M3227 3176 c-4 -10 -5 -21 -2 -24 9 -9 17 6 13 25 -3 17 -4 17 -11
-1z"/>
<path d="M3775 3170 c3 -5 18 -10 33 -9 24 0 25 1 7 9 -28 12 -47 12 -40 0z"/>
<path d="M3025 3151 c-3 -12 -4 -25 -1 -30 9 -14 -4 -41 -20 -41 -8 0 -14 -6
-14 -12 0 -9 -3 -8 -10 2 -7 12 -11 10 -18 -10 -25 -67 -25 -92 -1 -111 l24
-19 -27 0 c-22 0 -29 -6 -34 -27 -3 -16 -9 -37 -12 -48 -3 -11 -7 -26 -8 -34
-6 -32 -58 -66 -102 -67 -34 0 -41 3 -37 15 2 9 1 22 -4 30 -6 9 -13 -11 -20
-60 -7 -41 -16 -82 -21 -92 -14 -24 -1 -127 15 -121 6 3 12 -2 12 -11 0 -9 -6
-14 -13 -11 -8 3 -14 -5 -17 -22 -3 -19 -5 -13 -7 18 -2 44 -20 -113 -36 -323
-4 -60 -10 -93 -16 -85 -6 11 -10 11 -17 -1 -7 -10 -13 -11 -31 -1 -12 6 -24
9 -28 6 -3 -3 -2 -6 2 -6 4 0 0 -7 -9 -16 -9 -9 -19 -14 -22 -11 -3 4 0 73 7
156 7 82 10 154 6 159 -3 5 -18 12 -33 15 -16 2 -109 26 -208 52 -99 26 -236
61 -305 78 -69 17 -129 37 -133 44 -4 7 -14 13 -21 13 -7 0 -20 6 -30 13 -16
12 -17 17 -6 36 9 18 18 22 38 18 15 -3 35 -2 46 2 42 16 -94 98 -179 108
l-30 3 37 -22 c21 -13 36 -28 34 -35 -3 -6 10 -14 30 -17 38 -8 40 -12 19 -40
-8 -11 -15 -30 -15 -43 0 -13 -2 -23 -4 -23 -16 0 -894 224 -908 231 -10 5
-18 17 -18 26 0 9 -3 14 -6 11 -3 -4 4 -73 15 -155 25 -179 26 -210 6 -210 -8
0 -16 6 -19 14 -11 27 -36 14 -37 -19 -1 -24 -3 -27 -6 -10 -2 12 -11 22 -19
22 -19 0 -135 -81 -129 -90 3 -4 26 -13 52 -20 81 -22 123 -41 123 -57 0 -8
-5 -11 -11 -7 -8 4 -8 1 -1 -12 5 -11 7 -25 5 -31 -5 -14 13 -18 60 -14 16 1
29 -4 33 -12 3 -9 18 -21 34 -27 l29 -12 -25 -26 c-13 -15 -24 -30 -24 -35 0
-15 -77 32 -94 57 -13 21 -14 24 -1 20 26 -10 16 12 -10 24 -14 6 -25 18 -25
27 0 18 -30 34 -137 70 -45 16 -80 32 -77 36 3 5 -1 7 -8 4 -7 -2 -44 7 -83
20 -38 13 -54 21 -35 17 68 -13 105 -6 154 32 25 19 52 34 59 32 6 -1 8 -1 4
2 -4 2 -3 10 3 17 8 10 -1 17 -46 32 -54 18 -86 44 -72 58 7 7 77 -5 150 -26
68 -19 73 -11 58 93 -11 81 -19 174 -20 229 0 23 -6 27 -52 38 -57 13 -138 48
-138 60 0 25 25 28 91 11 l69 -18 -1 31 c-2 50 -13 90 -26 94 -6 2 -13 -3 -15
-12 -1 -8 -45 -39 -97 -68 -52 -28 -99 -59 -105 -68 -6 -12 -4 -52 8 -131 10
-63 16 -123 13 -134 -4 -17 -5 -16 -6 3 -1 29 -5 28 -183 -79 -81 -48 -151
-88 -155 -88 -5 0 -28 -23 -52 -51 -58 -68 -61 -97 -21 -274 17 -77 34 -149
37 -159 7 -24 82 -106 97 -106 8 0 10 33 6 111 -5 106 -6 112 -28 120 -20 8
-22 6 -17 -11 9 -27 -10 -25 -40 4 -22 22 -45 109 -32 123 4 3 27 -2 52 -11
147 -53 133 -43 138 -94 2 -26 0 -84 -5 -129 -16 -138 -14 -141 67 -174 39
-16 77 -29 85 -29 26 0 -11 28 -55 42 -69 23 -79 76 -36 188 12 30 31 66 42
79 19 23 22 23 60 11 34 -12 39 -17 33 -34 -4 -12 -7 -38 -7 -58 1 -59 33
-221 48 -241 13 -18 144 -57 192 -57 32 0 125 62 143 95 12 23 20 26 54 23
l40 -3 -3 63 -2 63 96 91 c81 77 95 95 90 115 -3 15 -1 23 8 23 27 0 154 -38
215 -64 35 -15 67 -24 72 -21 6 4 10 2 10 -3 0 -5 30 -24 67 -42 52 -25 87
-34 153 -40 126 -11 366 -74 622 -163 152 -54 208 -80 208 -98 0 -15 -28 -10
-78 12 -68 31 -72 27 -117 -121 -9 -30 -21 -97 -26 -148 -5 -51 -11 -97 -14
-102 -3 -5 -10 -42 -15 -82 -5 -40 -12 -89 -15 -109 -7 -35 -7 -36 45 -58 29
-12 53 -21 55 -19 2 2 5 48 6 103 2 94 1 101 -19 110 -13 6 -22 19 -22 32 0
19 5 23 34 23 19 0 42 7 51 16 23 23 81 7 78 -22 -1 -10 -7 -57 -13 -104 -5
-47 -10 -112 -10 -146 0 -55 2 -62 25 -72 38 -17 45 -15 45 14 0 21 4 25 18
19 9 -3 29 -9 45 -12 15 -3 36 -18 47 -32 19 -28 81 -54 106 -44 8 3 14 15 14
28 0 20 -10 26 -69 44 -59 18 -75 28 -110 70 -63 75 -56 132 21 177 55 32 54
32 150 4 63 -19 69 -23 108 -81 l42 -61 -16 -113 c-9 -63 -17 -120 -18 -127
-4 -17 79 -56 160 -74 37 -9 90 -24 117 -35 28 -10 56 -19 62 -19 7 0 61 49
121 109 74 73 122 130 148 176 80 144 145 345 124 387 -10 20 -9 21 2 6 13
-15 15 -12 27 27 7 24 10 49 6 55 -9 15 -61 37 -155 67 -41 13 -57 20 -35 17
22 -4 49 -7 60 -7 11 -1 22 -4 25 -8 3 -5 23 -15 43 -24 l38 -16 -27 41 c-30
45 -60 65 -117 75 -43 8 -45 28 -3 33 28 4 116 -27 116 -40 0 -5 8 -8 18 -8
19 -1 74 -29 56 -30 -6 0 -25 5 -43 11 -18 6 -35 9 -38 6 -3 -4 12 -29 33 -58
21 -29 39 -48 41 -43 10 33 63 313 63 336 0 16 4 37 9 47 6 10 12 45 15 78 5
49 3 60 -9 60 -19 0 -29 -35 -23 -84 4 -36 4 -36 -11 -12 -36 56 -185 190
-234 208 -15 6 -27 16 -27 22 0 7 7 8 18 4 20 -8 20 -8 50 -6 20 1 21 4 11 22
-9 17 -8 20 2 14 8 -5 10 -4 5 3 -4 7 -19 12 -33 12 -19 0 -24 4 -19 16 3 9 6
18 6 21 0 3 12 -2 26 -12 14 -9 28 -15 30 -12 8 7 -26 37 -41 37 -8 0 -17 5
-21 12 -5 8 4 9 34 4 34 -5 42 -3 42 9 0 9 -7 18 -15 21 -8 4 -12 11 -9 16 4
6 0 14 -7 19 -12 8 -12 11 1 19 12 8 13 11 1 19 -10 6 -10 10 -1 13 6 2 13 16
13 31 1 15 7 25 12 23 6 -2 11 21 12 54 1 55 0 58 -25 63 -36 7 -42 0 -8 -9
20 -5 25 -11 21 -23 -25 -61 -115 -345 -115 -361 0 -10 -4 -22 -10 -25 -5 -3
-10 -17 -10 -29 0 -13 -7 -29 -15 -36 -8 -7 -15 -18 -14 -24 5 -39 -1 -48 -28
-44 -16 3 -36 9 -45 13 -13 5 -18 3 -18 -9 0 -10 11 -19 30 -23 17 -3 32 -9
35 -13 5 -8 -18 -77 -86 -262 -33 -90 -46 -115 -58 -111 -14 4 -14 3 -1 -6 12
-8 13 -17 2 -58 -18 -65 -43 -87 -91 -79 -72 11 -140 38 -134 52 3 8 0 14 -6
14 -6 0 -11 -5 -11 -11 0 -14 -16 -10 -186 43 l-131 40 5 47 c5 48 12 64 19
44 2 -7 11 -9 19 -6 18 7 18 -11 -2 -48 -8 -17 -14 -33 -11 -35 2 -2 12 14 22
36 11 25 25 40 36 40 20 0 44 35 34 49 -3 5 -18 12 -34 16 -25 5 -29 11 -29
41 0 19 4 34 9 34 5 0 9 8 9 18 0 12 4 10 13 -8 11 -22 11 -27 -5 -41 -19 -17
-14 -29 12 -29 12 0 30 29 59 89 22 49 41 95 41 103 0 11 2 11 9 0 4 -7 6 -25
4 -40 l-4 -27 15 25 15 25 1 -24 c0 -24 0 -24 20 -6 17 15 15 7 -11 -51 -29
-64 -50 -100 -36 -63 4 13 1 16 -14 12 -11 -3 -19 -10 -18 -17 2 -18 -13 -56
-22 -56 -4 0 -7 -13 -6 -29 1 -16 5 -27 9 -25 4 3 2 -9 -4 -26 -5 -17 -7 -34
-4 -37 6 -7 299 -93 302 -90 1 1 26 74 57 162 112 324 158 449 169 463 9 10 8
16 -2 22 -16 10 -31 -6 -23 -26 2 -6 -1 -15 -7 -19 -14 -9 -7 75 16 190 8 39
17 88 19 110 5 37 13 88 49 328 7 48 10 87 6 87 -4 0 -13 -41 -20 -91 -13 -97
-22 -110 -66 -91 -23 11 -26 8 -66 -71 -36 -69 -43 -78 -46 -56 -3 23 -7 26
-43 26 -33 0 -43 -4 -51 -23 -6 -13 -15 -24 -20 -24 -5 0 1 19 13 41 21 43 16
58 -19 59 -10 0 -10 4 2 16 9 8 16 25 17 37 2 67 6 104 14 121 6 14 5 17 -3
12 -7 -4 -12 -1 -12 8 0 27 12 46 29 46 9 0 38 23 66 50 27 28 54 50 60 50 5
0 4 -4 -4 -9 -11 -7 -9 -10 10 -13 13 -2 23 -8 22 -13 0 -6 -4 -37 -7 -70 -7
-58 -6 -59 9 -32 15 26 57 38 69 19 3 -5 -8 -36 -24 -70 -29 -62 -29 -72 1
-72 11 0 19 11 23 34 4 19 16 63 27 97 16 49 18 64 8 70 -10 6 -9 9 4 15 25 9
21 34 -5 34 -13 0 -54 6 -93 14 -38 7 -104 19 -145 26 -41 7 -80 17 -87 22 -7
6 -13 2 -18 -11z m45 -232 c0 -13 -4 -18 -12 -13 -6 4 -25 11 -42 15 l-31 8
33 -3 c17 -1 32 1 32 6 0 4 5 8 10 8 6 0 10 -9 10 -21z m-70 -196 c0 -13 -20
-39 -20 -26 0 6 -12 16 -27 21 -28 10 -27 10 10 11 20 1 37 -2 37 -6z m285
-26 c31 -9 40 -16 37 -30 -3 -15 -11 -18 -43 -14 -44 5 -65 17 -31 17 30 0 27
14 -5 27 -39 15 -7 15 42 0z m-496 -89 c0 12 5 22 9 22 20 0 20 -15 2 -51 -11
-21 -20 -49 -20 -61 -1 -21 -2 -21 -11 -5 -8 13 -7 22 1 33 10 11 10 17 1 28
-7 9 -9 25 -4 43 l7 28 7 -30 c5 -24 7 -25 8 -7z m-1365 -74 c45 -4 220 -54
226 -64 4 -6 14 -8 23 -4 10 3 17 1 17 -6 0 -6 -4 -8 -10 -5 -5 3 -10 -1 -10
-9 0 -9 3 -15 8 -14 15 4 52 -14 46 -23 -3 -5 -2 -8 3 -7 20 5 54 -15 50 -30
-2 -10 -9 -16 -16 -14 -7 1 -10 -2 -6 -8 3 -5 12 -10 20 -10 8 0 17 -5 21 -12
4 -7 3 -8 -4 -4 -8 5 -12 -2 -13 -21 0 -15 -3 -22 -6 -15 -4 9 -10 7 -22 -7
-10 -12 -26 -19 -37 -16 -10 2 -53 11 -94 20 -41 9 -80 21 -87 27 -9 7 -13 7
-13 -1 0 -14 -50 -4 -65 13 -5 6 -30 18 -55 26 l-45 15 -3 67 c-3 59 -1 68 18
78 13 7 19 17 16 26 -4 10 -2 12 6 8 7 -4 21 -9 32 -10z m-304 -69 c-19 -19
-39 -35 -44 -35 -10 1 63 70 73 70 3 0 -10 -16 -29 -35z m1647 -62 c-2 -16 -4
-3 -4 27 0 30 2 43 4 28 2 -16 2 -40 0 -55z m463 -84 c0 -5 -7 -9 -15 -9 -15
0 -20 12 -9 23 8 8 24 -1 24 -14z m-876 -24 c44 -9 95 -15 114 -11 l35 5 -6
-125 c-3 -69 -7 -127 -9 -129 -9 -10 -499 122 -516 139 -11 11 -8 22 19 66 31
51 33 52 70 46 22 -3 56 -9 77 -12 32 -5 42 -2 63 20 26 29 24 29 153 1z
m-1222 -40 c0 -5 -5 -11 -11 -13 -6 -2 -11 4 -11 13 0 9 5 15 11 13 6 -2 11
-8 11 -13z m2370 -14 c15 -8 25 -17 23 -21 -3 -5 2 -10 10 -14 16 -6 21 -36 7
-36 -13 0 -82 78 -82 92 0 8 3 9 8 3 4 -6 19 -16 34 -24z m-755 -118 c-4 -43
-6 -81 -7 -85 0 -5 -3 -8 -8 -8 -6 0 -4 39 7 163 1 4 4 7 7 7 4 0 4 -35 1 -77z
m-1924 5 c-16 -30 -18 -31 -21 -11 -2 12 5 33 15 47 25 33 29 7 6 -36z m762 3
c46 -15 52 -19 25 -16 -19 2 -55 13 -80 24 -50 23 -35 21 55 -8z m-889 -57
c-8 -20 -63 -18 -74 3 -8 13 -4 20 16 30 20 11 27 11 33 1 6 -9 10 -7 16 7 7
19 8 19 11 -3 2 -13 1 -30 -2 -38z m2963 32 c18 -19 21 -31 16 -62 -6 -44 -19
-62 -30 -44 -4 7 -2 16 5 20 9 6 9 9 0 15 -6 4 -17 2 -22 -3 -8 -8 -19 -7 -39
3 -20 11 -30 12 -35 4 -7 -12 12 -29 34 -29 6 0 12 -4 12 -9 0 -5 15 -16 33
-25 l32 -16 -29 0 -29 0 23 -25 c13 -14 19 -25 14 -25 -6 0 -23 14 -39 30 -17
18 -43 33 -65 36 -21 4 -53 21 -80 46 -43 37 -44 39 -17 35 30 -5 46 7 21 17
-8 3 -12 11 -8 17 4 7 9 7 13 1 3 -5 27 -12 53 -16 43 -7 47 -5 50 16 2 17 9
22 26 21 13 -2 21 1 17 7 -13 20 22 9 44 -14z m-51 -199 c7 -6 18 -19 23 -30
10 -18 7 -19 -43 -15 -29 1 -56 6 -59 10 -3 5 -30 10 -60 13 -32 4 -61 13 -71
23 -17 17 -13 17 90 14 59 -2 113 -9 120 -15z m-67 -293 c37 -19 33 -29 -5
-14 -15 5 -42 10 -61 10 -19 0 -37 5 -40 10 -10 16 73 12 106 -6z m-231 -46
c22 0 40 -4 40 -9 0 -5 7 -9 15 -9 16 0 56 -40 50 -50 -8 -12 -64 2 -81 21 -9
10 -24 19 -33 19 -17 1 -51 23 -51 34 0 4 5 4 10 1 6 -3 28 -7 50 -7z"/>
<path d="M3085 3159 c51 -10 92 -10 50 1 -16 4 -43 8 -60 8 -25 0 -24 -2 10
-9z"/>
<path d="M3410 3079 c0 -12 5 -19 12 -17 18 6 20 25 3 31 -10 5 -15 0 -15 -14z"/>
<path d="M2730 3060 c12 -8 12 -10 1 -10 -11 0 -11 -3 -1 -15 8 -10 10 -41 7
-102 -5 -80 -5 -82 4 -28 17 113 13 165 -14 165 -7 0 -6 -4 3 -10z"/>
<path d="M3455 3000 c-11 -21 -16 -52 -14 -94 1 -35 0 -67 -4 -72 -3 -6 -8
-32 -12 -60 -3 -27 -8 -62 -11 -77 -4 -23 -1 -28 12 -25 21 4 46 82 39 121 -3
18 0 27 8 27 11 0 92 189 85 195 -2 2 -22 6 -45 10 -40 6 -43 5 -58 -25z"/>
<path d="M2723 2780 c0 -36 2 -50 4 -32 2 17 2 47 0 65 -2 17 -4 3 -4 -33z"/>
<path d="M1850 2770 c14 -4 32 -8 40 -9 13 -1 13 0 0 9 -8 5 -26 9 -40 9 l-25
-1 25 -8z"/>
<path d="M1949 2677 c37 -38 54 -48 110 -61 36 -9 106 -25 155 -36 48 -12 90
-19 93 -16 3 2 -28 14 -69 26 -40 11 -91 29 -113 39 -22 11 -50 22 -62 26 -26
7 -28 16 -12 48 10 22 10 22 -6 2 -18 -22 -45 -22 -103 2 l-37 15 44 -45z"/>
<path d="M3400 2628 c0 -13 -3 -34 -6 -48 -5 -19 -4 -22 5 -14 17 15 27 84 12
84 -6 0 -11 -10 -11 -22z"/>
<path d="M2337 2613 c-4 -3 -7 -16 -7 -29 0 -22 18 -35 48 -33 10 1 6 4 -8 8
-19 5 -25 14 -25 34 1 30 1 30 -8 20z"/>
<path d="M3709 2606 c8 -9 24 -22 35 -28 19 -10 20 -10 7 6 -8 9 -24 22 -35
28 -19 10 -20 10 -7 -6z"/>
<path d="M3341 2559 c-14 -40 -14 -60 0 -36 5 9 17 17 24 17 9 0 15 10 15 25
0 36 -26 31 -39 -6z"/>
<path d="M2444 2530 c21 -11 61 -23 90 -25 l51 -4 -48 12 c-27 7 -45 15 -42
19 4 4 -1 7 -11 6 -11 0 -32 3 -49 7 -27 6 -27 5 9 -15z"/>
<path d="M3530 2531 c0 -12 5 -21 10 -21 6 0 10 6 10 14 0 8 -4 18 -10 21 -5
3 -10 -3 -10 -14z"/>
<path d="M3575 2471 c16 -11 31 -18 34 -15 7 7 -12 21 -39 29 -23 6 -23 5 5
-14z"/>
<path d="M3342 2411 c-6 -17 -9 -31 -6 -31 7 0 25 52 20 57 -2 2 -8 -10 -14
-26z"/>
<path d="M3540 2412 c0 -6 20 -21 45 -33 25 -12 45 -26 45 -31 0 -4 5 -8 10
-8 22 0 8 21 -31 45 -52 33 -69 40 -69 27z"/>
<path d="M3528 2354 c-9 -8 3 -44 13 -38 5 3 9 0 9 -5 0 -6 5 -11 11 -11 6 0
28 -13 49 -30 21 -16 42 -30 47 -30 6 0 18 -9 28 -20 10 -11 22 -17 26 -14 5
3 9 1 9 -5 0 -6 7 -8 15 -5 22 9 19 51 -5 57 -17 4 -18 2 -9 -15 17 -31 5 -30
-16 2 -11 17 -27 32 -35 36 -8 3 -2 -8 14 -25 16 -17 27 -33 24 -36 -3 -3 -29
21 -58 52 -29 32 -66 66 -82 76 -32 19 -32 19 -40 11z"/>
<path d="M3336 2244 c-11 -8 -15 -14 -9 -14 7 0 13 -8 15 -17 3 -16 5 -16 15
3 16 29 3 46 -21 28z"/>
<path d="M437 1990 c-7 -26 4 -45 21 -39 7 3 6 15 -2 34 l-12 30 -7 -25z"/>
<path d="M2667 1304 c-4 -4 -7 -18 -7 -31 0 -24 29 -42 94 -59 26 -6 27 -5 24
27 -2 24 -10 37 -28 46 -37 17 -75 25 -83 17z"/>
</g>
</svg>
