<?xml version="1.0" encoding="utf-8"?>
<!-- Generator: Adobe Illustrator 26.5.0, SVG Export Plug-In . SVG Version: 6.00 Build 0)  -->
<svg version="1.1" xmlns="http://www.w3.org/2000/svg" xmlns:xlink="http://www.w3.org/1999/xlink" x="0px" y="0px"
	 viewBox="0 0 576 432" style="enable-background:new 0 0 576 432;" xml:space="preserve">
<style type="text/css">
	.st0{stroke:#000000;stroke-miterlimit:10;}
	.st1{fill:#FFFFFF;}
</style>
<g id="Layer_2">
	<rect y="-6" class="st0" width="586.3" height="445.3"/>
</g>
<g id="Layer_1">
	<g id="Layer_1_00000079459682699758495130000016962788624084735148_" xmlns:vectornator="http://vectornator.io">
		<path class="st1" d="M234.4,333.8c-35.4,0-71,0.4-106.4-0.1c-32.6-0.4-60.9-23.6-67.9-55.4c-1.5-6.3-1.8-13-1.8-19.6
			c-0.2-29,0.1-57.9-0.1-86.9c-0.4-33.8,23.9-65.6,60.6-71.7c3.9-0.6,7.9-0.9,11.8-0.9c69.3,0,138.6-0.1,207.9,0
			c35.7,0,65.2,25,71.3,59.9c0.7,4.4,0.9,8.9,0.9,13.3c0.1,30.4,0,60.7,0,91.2c0,32.6-25.3,62.8-57.6,68.6c-5.4,1-10.8,1.3-16.3,1.3
			C302.6,333.9,268.6,333.8,234.4,333.8L234.4,333.8z M234.5,124c-34.8,0-69.7,0-104.6,0c-2.7,0-5.5,0.2-8.2,0.6
			c-21.7,3.4-38.9,23.6-38.9,45.5c0,31,0,62,0,93c0,3,0.2,6.1,1,9c5.2,22.6,24.1,37.2,48,37.2c68.4,0,136.8,0,205.2,0
			c3.7,0,7.3-0.4,10.8-1c21.5-3.8,38.1-23.6,38.1-45.5c0-31,0-62.2,0-93.2c0-1.5,0-3-0.1-4.5c-2.9-23.4-23.2-41.1-46.7-41.1
			C304.1,124,269.3,124,234.5,124z"/>
		<path class="st1" d="M87,101.5c4.1-8.9,9.7-15.8,16.7-21.7c13.3-11.1,28.8-16.9,45.5-20.4c17.5-3.7,35.4-5.7,53.3-6.1
			c36.5-0.6,73.2-1.5,109.7-1c36.6,0.6,73.3,3.5,109.3,10.7c6.6,1.3,13,3.2,19.5,4.7c18,4.3,31.8,14.7,42.6,29.3
			c12.8,17.2,21.7,36.3,28.4,56.5c0.2,0.6,0.2,1.2,0.4,2.1c-1.2,0-2.2,0-3.2,0c-12.8,0-25.6-0.1-38.3,0c-2.6,0-3.4-0.7-4-3.2
			c-5.2-20.1-14.4-38.1-27.6-54.2c-5.6-6.8-12.5-11.7-20.9-14.5c-14-4.7-28.4-7.8-42.8-9.6c-19.8-2.3-39.8-4.6-59.8-5.8
			c-18.3-1.1-36.6-0.6-55-0.6c-10.6,0-21.3,0.4-31.9,0.9c-21.2,0.9-42.2,2.6-62.7,8.5c-8.4,2.4-16.3,6.1-23.6,10.8
			c-1.3,0.9-3.2,1.3-4.7,1.2c-14.2-0.5-28.1,1.3-41.1,7.4C93.3,98.1,90.5,99.6,87,101.5z"/>
		<path class="st1" d="M466.8,245.2c0.5-23.1,3.9-42.1,14.5-59.2c2.2-3.5,4.7-6.8,7.7-9.7c15.3-15.7,35.1-15.1,49.5,1.5
			c9.4,10.7,14.7,23.5,17.5,37.1c5.2,24.5,3.9,48.4-5.8,71.7c-3,7.4-7.3,14.2-12.9,20.1c-15.5,16.2-35.5,15.6-50.1-1.5
			c-9.9-11.4-15.2-25.1-17.9-39.7C467.9,257.7,467.3,249.7,466.8,245.2z M537.3,241.7c-0.9-6.7-1.3-13.5-2.6-20.1
			c-1.5-8.2-4.1-15.8-9.9-22.2c-7.1-7.8-17.5-7.8-24.3,0.2c-2.4,2.9-4.6,6.2-6,9.7c-7.2,17.9-7.4,36.3-3.3,54.8
			c1.8,7.9,4.6,15.3,10.7,21.1c6.6,6.1,15.6,6.2,21.7-0.2c3-3.2,5.5-7.1,7.3-11C535.5,263.7,536.9,252.9,537.3,241.7z"/>
		<path class="st1" d="M431.9,294c-4.4-7.8-7.3-15.8-9.1-24.2c-5.4-24.8-4.4-49.3,5.5-72.9c4.1-9.9,9.9-18.6,18.5-25.2
			c6.3-4.9,13.5-7.1,21.5-6.8c6.2,0.2,12.5,0,19,0c-0.2,0.6-0.2,1-0.5,1.1c-12.8,11.2-20.1,25.8-24.2,41.9c-7.2,28-6,55.5,5.2,82.4
			c4.4,10.5,10.6,19.8,19.5,27.1c0.2,0.1,0.2,0.5,0.9,1.2c-11.9-1.2-23.9,2.2-35.4-3c1.2-2.3,2.2-4.4,3.2-6.5
			c3.7-7.3,2.2-14.6-3.9-18.9c-6-4.3-13.5-3.2-19.1,2.8C432.7,293.3,432.5,293.5,431.9,294z"/>
		<path class="st1" d="M48.1,167.3c0,1.3,0,2.3,0,3.2c0,29.8,0.1,59.5,0,89.3c-0.1,21.8,6.8,40.9,21.3,57.2c0.2,0.2,0.5,0.6,0.9,1.1
			c-12.9,1.7-24.5,0.2-33.2-10.6c-8.6-10.7-13.5-23-16.2-36.3c-5.2-25.7-4.4-51.1,5-75.8c3.8-9.9,8.9-18.9,17.5-25.4
			c0.9-0.7,1.8-1.2,2.8-1.8C46.5,167.9,47,167.8,48.1,167.3z"/>
		<path class="st1" d="M420.6,189.8c0-6.2,0.1-12.5,0-18.7c-0.4-27.8-12-49.8-34.3-66.5c-0.7-0.6-1.6-1.2-2.1-2.3
			c4.6,0.2,9.1,0.4,13.8,0.9c13.8,1.2,26.9,4.4,39.1,11.1c1.9,1.1,3.8,2.8,4.9,4.6c7.1,11.4,12.7,23.7,15.8,37.2
			C439.7,161,429.1,174,420.6,189.8z"/>
		<path class="st1" d="M372.1,369.5c-7.4,0-14.7,0-22.2,0c-5.5,0-8.6-2.9-8.5-7.7c0.1-4.5,3.3-7.2,8.6-7.2
			c9.3,0.1,18.6,0.5,27.9,0.4c8.2-0.1,16.3-0.7,24.6-1.1c2.4-0.1,4.4-1,5.7-3.3c7.5-13.4,15.2-26.7,22.8-40c2.2-3.8,4-7.7,6.1-11.6
			c2.3-4.4,6.6-6,10.3-3.9c3.9,1.9,5.1,6.3,2.7,10.7c-9.5,17.3-19.4,34.3-28.7,51.6c-4.4,7.9-11.1,11.1-19.6,11.3
			c-9.9,0.4-19.8,0.7-29.7,1.1C372.1,369.8,372.1,369.7,372.1,369.5z"/>
		<path class="st1" d="M342.4,349.3c-9.6,6-11.3,18.3-0.1,25.8c-3,3.4-6.7,5.4-11.1,5.4c-12,0.1-24.1,0.4-36.1,0
			c-9.3-0.2-16.6-8.8-16.4-18.5c0.1-9.6,7.4-18,16.8-18.1c11.8-0.2,23.7-0.2,35.5,0C335.5,343.8,339.1,345.9,342.4,349.3z"/>
		<path class="st1" d="M385.6,329.1c15.3-11.2,25.8-25.4,31.6-43.7c0.6,1,1,1.6,1.2,2.3c2.4,4.9,5,9.7,7.3,14.6c0.5,1,0.5,2.6,0,3.4
			c-3.7,7.1-7.5,14.1-11.4,21.1c-0.6,1-2.1,2.2-3.2,2.2C402.9,329.2,394.5,329.1,385.6,329.1z"/>
		<path class="st1" d="M299.7,264.7c1.1-5.8,2.2-11.4,3.3-17.4c10.8,6.2,21.5,8.5,32.5,1.3c6.5-4.4,13.1-16.4,13-23.4
			c-0.9,0.6-1.6,1.2-2.2,1.7c-6.6,5.4-14.1,6.9-22.3,5.6c-8.8-1.5-14.7-6.9-17-15.3c-4.4-16.1-1.5-30.7,10.6-42.8
			c10.5-10.7,28-11.6,39.6-5.8c7.7,3.7,11.9,10.3,13,18.4c3.4,24.1-1.2,46.6-15.9,66.3c-7.7,10.3-18.7,14.6-31.4,15.6
			C314.8,269.2,307.3,267.8,299.7,264.7z M324.2,202.9c-0.1,6.5,1.2,11.3,6.8,13.8c5.1,2.2,11,0.4,15.2-4.5
			c4.5-5.2,6.2-11.4,6.2-18.3c0-6-2.8-10.5-7.3-12.2c-5-1.8-10.8,0-14.7,4.5C326,191.3,324.4,197.4,324.2,202.9z"/>
		<path class="st1" d="M190.2,266.9c1.5-7.4,2.7-14.1,4.1-21.5c-13.3,0-26,0-39.4,0c0.4-2.2,0.5-3.8,0.9-5.5
			c0.7-3.4,1.2-6.9,2.3-10.3c0.7-2.3,1.8-4.7,3.3-6.6c15-18.3,30.1-36.3,45.2-54.4c0.6-0.7,1.6-1.6,2.4-1.6
			c6.3-0.1,12.7-0.1,19.5-0.1c-4,20.7-7.9,41.1-11.9,61.8c3.7,0,6.9,0,10.8,0c-0.7,4.3-1.3,8-2.1,11.8c-0.9,4.5-1,4.5-5.6,4.5
			c-7.7,0.1-6-0.9-7.5,6.2c-1,4.4-1.6,8.8-2.6,13c-0.2,0.9-1.3,2.2-2.1,2.3C201.6,266.9,196,266.9,190.2,266.9z M172.9,227.9
			c0.7,0.4,1,0.6,1.2,0.6c7.2,0,14.4,0.1,21.5,0c0.9,0,2.1-1.5,2.3-2.3c1.7-8,3.3-15.9,4.7-24c0.7-3.7,1.3-7.3,1.9-11.1
			c-0.2-0.1-0.5-0.2-0.7-0.2C193.7,203.1,183.4,215.5,172.9,227.9z"/>
		<path class="st1" d="M288,167.3c-5.2,27.1-10.5,54.4-15.8,82.2c6.9,0,13.5,0,20.6,0c-0.7,4-1.3,7.7-2.1,11.3
			c-1.2,6.1-1.2,6.1-7.5,6.1c-17.2,0-34.2,0-51.4,0c-1.2,0-2.4,0-4.1,0c1.2-5.7,2.2-11.1,3.4-16.3c0.1-0.5,1.6-0.9,2.4-1
			c5.6-0.1,11.2-0.1,16.7,0c2.1,0,3-0.5,3.4-2.7c2.9-15.2,5.8-30.6,8.9-45.8c1-4.7,1.8-9.5,2.8-14.2c0.1-0.6,0.1-1.1,0.1-2.3
			c-7.2,1.7-13.9,3.3-21.2,4.9c1.1-5.7,2.1-11.1,3.2-16.4c0.1-0.5,0.9-1.2,1.5-1.3C261.5,168.7,274.3,165.2,288,167.3z"/>
		<path class="st1" d="M143.3,184.2c-14.5,0-28.2,0-42.4,0c1.1-5.6,2.1-10.8,3.3-16.1c0.1-0.6,1.8-1.2,2.9-1.2c9-0.1,18,0,27,0
			c10.2,0,20.4,0,30.7,0c1.1,0,2.2,0,3.7,0c-1.5,7.1-2.3,13.8-6,20c-15.5,25.7-30.7,51.7-45.9,77.5c-1,1.7-2.1,2.4-4,2.4
			c-6-0.1-11.9,0-18.5,0C110.6,239.2,126.8,212.1,143.3,184.2z"/>
		<path class="st1" d="M530,241.6c-0.7,10.2-1.7,20.1-5.8,29.5c-1.3,2.9-3,5.7-5.2,8.2c-3.8,4.3-8.9,4.4-12.3,0
			c-2.9-3.8-5.6-8.2-6.8-12.7c-5.4-18.3-5.2-36.5,1.7-54.4c1.1-2.9,3-5.7,5.2-8.2c3.8-4.1,8.6-4,12.4,0.1c4.1,4.4,6.5,9.9,7.5,15.7
			C528.1,227,528.9,234.4,530,241.6z"/>
	</g>
</g>
</svg>
