<?xml version="1.0" encoding="UTF-8" standalone="no"?>
<!DOCTYPE svg PUBLIC "-//W3C//DTD SVG 1.1//EN" "http://www.w3.org/Graphics/SVG/1.1/DTD/svg11.dtd">
<!-- Created with Vectornator (http://vectornator.io/) -->
<svg height="100%" stroke-miterlimit="10" style="fill-rule:nonzero;clip-rule:evenodd;stroke-linecap:round;stroke-linejoin:round;" version="1.1" viewBox="0 0 1024 1024" width="100%" xml:space="preserve" xmlns="http://www.w3.org/2000/svg" xmlns:vectornator="http://vectornator.io" xmlns:xlink="http://www.w3.org/1999/xlink">
<defs/>
<clipPath id="ArtboardFrame">
<rect height="1024" width="1024" x="0" y="0"/>
</clipPath>
<g clip-path="url(#ArtboardFrame)" id="Layer-1" vectornator:layerName="Layer 1" visibility="hidden">
<path d="M0 512C0 229.23 229.23 0 512 0C794.77 0 1024 229.23 1024 512C1024 794.77 794.77 1024 512 1024C229.23 1024 0 794.77 0 512Z" fill="none" opacity="1" stroke="#edbe1d" stroke-linecap="butt" stroke-linejoin="round" stroke-width="4"/>
</g>
<g id="Layer-3-copy-copy" vectornator:layerName="Layer 3 copy copy">
<path d="M879.518 352.384C879.188 294.755 850.877 248.221 816.314 248.419C804.914 248.484 794.309 253.609 785.155 262.541C766.554 280.691 754.189 314.469 754.41 353.09C754.74 410.718 782.978 457.327 817.541 457.129C852.104 456.931 879.849 410.012 879.518 352.384ZM848.741 352.595C848.943 387.887 836.985 417.434 816.994 417.549C797.003 417.663 784.65 388.247 784.448 352.956C784.323 331.152 789.071 311.172 797.305 299.48C802.293 292.398 808.692 288.045 816.195 288.002C836.186 287.887 848.539 317.303 848.741 352.595ZM839.493 352.636C839.317 321.985 828.952 297.177 816.31 297.25C812.14 297.274 808.215 300.031 804.876 304.773C798.089 314.409 793.579 332.373 793.696 352.914C793.872 383.566 804.237 408.373 816.879 408.301C829.521 408.228 839.668 383.288 839.493 352.636ZM815.669 236.436C804.168 199.569 775.995 139.62 735.554 123.15C685.522 102.775 579.626 96.2252 503.118 96.6637C434.459 97.0572 346.836 97.0469 298.699 114.37C264.337 126.737 246.241 146.252 237.007 167.102C254.093 156.142 274.316 149.65 296.118 149.525L309.214 149.467C316.064 144.387 324.12 139.759 333.569 135.893C375.823 118.603 452.769 118.643 513.055 118.297C580.233 117.912 681.739 129.006 704.961 148.22C726.477 166.022 748.24 206.03 754.409 236.709L813.672 236.667C814.325 236.571 815.011 236.492 815.669 236.436ZM785.506 457.42C760.241 438.871 743.426 398.903 743.165 353.214C742.932 312.624 755.854 275.411 777.35 254.437C779.528 252.312 781.81 250.467 784.131 248.71L752.021 248.779C717.459 248.978 689.714 295.885 690.044 353.599C690.205 381.622 697.046 406.871 707.9 425.582C711.573 419.426 718.281 416.043 725.099 416.553C727.495 416.732 729.864 417.351 732.136 418.519C741.224 423.19 744.835 434.403 740.164 443.491C740.096 443.624 737.042 449.366 734.955 453.354C740.733 456.245 746.841 457.822 753.176 457.786C753.214 457.786 753.285 457.786 753.324 457.785L785.506 457.42ZM741.911 237.875C738.341 221.06 729.535 200.802 718.734 183.82C707.064 176.422 692.937 170.603 672.047 166.863C665.823 165.749 652.819 164.994 637.558 164.354C669.101 183.733 690.278 218.332 690.506 258.08L690.711 287.378C702.006 261.06 720.06 242.399 741.911 237.875ZM733.841 435.824C734.132 431.861 732.071 427.862 728.322 425.935C727.072 425.292 725.787 424.941 724.47 424.842C720.515 424.546 716.581 426.613 714.654 430.361C714.579 430.508 709.963 439.374 708.272 442.597C703.443 451.804 698.499 461.011 693.817 469.593C693.116 470.877 692.444 472.136 691.762 473.375C689.346 477.77 689.095 477.768 686.989 481.461C680.803 492.299 674.18 503.782 672.889 505.125C672.505 505.229 672.217 505.312 671.633 505.427C669.543 505.842 666.601 506.258 662.982 506.575C656.243 507.167 647.36 507.486 636.943 507.653C626.747 507.817 615.861 507.814 605.129 507.647C602.424 507.605 595.104 507.399 594.992 507.397C593.587 507.358 592.232 507.6 591 508.08C589.748 508.569 588.636 509.326 587.68 510.241C585.811 512.027 584.607 514.496 584.53 517.283C584.452 520.092 585.567 522.702 587.374 524.595C589.178 526.49 591.682 527.668 594.491 527.745C594.627 527.749 602.024 527.952 604.776 527.995C615.705 528.165 626.892 528.165 637.33 527.998C665.311 527.55 679.408 526.32 685.392 521.421C687.429 519.753 690.308 515.799 693.85 510.211C696.439 506.172 700.075 499.834 703.616 493.595C704.214 492.542 704.752 491.744 705.379 490.627C706.933 487.859 707.893 486.382 709.637 483.21C710.329 481.95 711.053 480.657 711.765 479.353C716.505 470.663 721.417 461.358 726.293 452.061C727.999 448.808 732.666 439.837 732.749 439.676C733.391 438.427 733.744 437.146 733.841 435.824ZM711.773 630.285C712.45 624.043 686.912 593.517 676.55 579.318C661.696 558.964 648.092 543.606 644.257 538.473C637.68 538.556 630.12 537.92 621.616 538.056C613.475 538.187 607.322 538.156 598.754 538.084C598.754 538.084 598.321 554.141 604.051 564.548C609.781 574.954 621.783 590.586 629.959 600.611C638.136 610.637 652.449 626.697 653.466 629.139C654.484 631.582 620.83 661.665 620.773 664.281C620.716 666.896 623.822 675.25 632.028 682.949C640.234 690.648 647.278 692.205 648.494 692.124C649.71 692.044 710.876 638.559 711.773 630.285ZM701.591 437.596C696.068 429.398 691.331 419.99 687.63 409.469C680.758 435.841 664.401 458.394 642.413 473.299C661.367 472.957 670.612 472.493 683.1 472.082C683.662 471.066 683.988 470.542 684.568 469.486C685.245 468.255 685.927 466.98 686.623 465.703C691.279 457.166 696.195 448.026 701.005 438.856C701.178 438.525 701.364 438.032 701.591 437.596ZM678.477 380.951L677.781 258.137C677.47 203.95 633.279 160.309 579.092 160.619L296.175 162.251C241.988 162.561 198.347 206.752 198.657 260.94L199.353 383.68C199.663 437.868 243.854 481.583 298.042 481.272L580.885 479.641C635.072 479.33 678.787 435.139 678.477 380.951ZM644.814 381.175C645.018 416.76 616.319 445.774 580.735 445.977L297.818 447.609C262.233 447.813 233.219 419.115 233.016 383.53L232.246 260.716C232.042 225.131 260.814 196.118 296.399 195.914L579.242 194.282C614.827 194.078 643.915 222.776 644.118 258.361L644.814 381.175ZM657.347 918.631C656.223 914.527 645.261 907.55 628.847 898.708C612.052 889.66 590.889 881.922 589.624 879.72C588.945 878.539 592.754 772.932 591.958 789.298C591.375 801.286 592.811 758.895 593.637 734.393C590.921 734.625 588.011 734.68 584.754 733.471C582.599 732.67 579.781 730.983 578.218 727.729C576.835 724.851 577.07 721.957 577.664 719.593C563.726 719.655 544.52 719.741 525.43 719.826C525.669 724.628 527.397 759.595 529.418 801.119C531.968 853.499 534.751 909.367 536.647 912.289C540.145 917.678 606.173 926.793 630.677 927.332C655.181 927.871 657.524 919.279 657.347 918.631ZM642.632 721.449C642.847 715.066 642.744 709.997 642.497 707.762C641.51 698.822 619.375 682.71 619.375 682.71C619.376 682.71 609.258 688.277 601.236 696.478C593.106 704.789 587.267 716.106 585.661 721.185C582.471 731.275 606.831 723.384 606.831 723.384C606.831 723.384 623.362 778.524 632.289 774.617C638.984 771.687 641.987 740.596 642.632 721.449ZM626.459 612.021C625.574 610.972 624.609 609.853 623.781 608.852C623.606 608.637 622.918 607.792 622.219 606.935C613.818 596.634 601.746 580.953 595.342 569.322C590.98 561.399 589.66 553.325 589.175 546.931C586.627 548.713 583.891 550.278 580.909 551.407C581.089 591.729 581.327 645.128 581.466 676.368C581.524 689.282 575.882 700.73 567.035 708.764L582.498 708.695C585.625 702.845 589.638 696.515 595.365 690.659C603.738 682.1 612.668 677.1 614.389 676.147C612.236 672.072 610.762 668.56 610.858 664.103C610.914 661.537 611.588 660.323 611.948 659.585C612.332 658.797 612.673 658.322 612.976 657.879C613.568 657.012 614.067 656.353 614.668 655.652C615.848 654.272 617.288 652.814 618.939 651.119C621.115 648.884 623.916 646.115 626.599 643.465L626.459 612.021ZM624.455 295.442C624.368 280.291 620.867 268.904 613.945 261.307C607.022 253.711 596.725 249.973 582.968 250.051C568.848 250.132 557.181 255.372 547.969 265.819C538.756 276.265 534.145 289.397 534.235 305.093C534.302 316.85 537.276 326.03 543.162 332.724C549.049 339.417 557.044 342.737 567.104 342.679C572.437 342.649 577.441 341.606 582.036 339.579C586.63 337.553 590.751 334.606 594.426 330.646C591.589 343.328 586.957 352.95 580.571 359.562C574.185 366.174 566.246 369.528 556.792 369.582C552.429 369.607 548.16 368.937 543.909 367.568C539.659 366.199 535.683 364.126 531.971 361.48L527.492 385.916C532.109 387.708 536.506 389.041 540.754 389.926C545.001 390.811 549.129 391.226 553.189 391.202C564.461 391.138 574.355 389.082 582.756 385.004C591.157 380.925 598.224 374.762 604.056 366.486C610.549 357.358 615.631 346.548 619.226 334.012C622.821 321.477 624.53 308.593 624.455 295.442ZM598.459 289.491C598.51 298.339 596.276 305.852 591.827 311.939C587.377 318.025 582.041 321.001 575.738 321.037C571.072 321.063 567.334 319.618 564.62 316.573C561.906 313.528 560.525 309.347 560.495 304.014C560.443 294.923 562.575 287.343 566.904 281.197C571.232 275.051 576.668 271.914 583.213 271.876C587.759 271.85 591.409 273.484 594.185 276.71C596.961 279.937 598.429 284.158 598.459 289.491ZM587.344 534.51C580.643 531.572 576.028 524.861 576.243 517.098C576.444 509.831 580.947 503.773 587.12 500.921C582.478 495.816 575.871 492.527 568.439 492.57L524.714 492.839C521.234 492.859 517.965 493.584 514.957 494.88C511.924 496.177 509.198 498.001 506.916 500.317C502.381 504.915 499.632 511.275 499.672 518.254C499.712 525.232 502.564 531.507 507.15 536.051C511.738 540.597 518.054 543.41 525.013 543.37L568.738 543.101C576.2 543.058 582.76 539.703 587.344 534.51ZM569.372 552.569C569.169 552.573 568.985 552.644 568.781 552.645C557.849 552.712 535.987 552.847 525.056 552.914C505.838 553.024 490.238 537.514 490.128 518.296C490.07 508.275 494.303 499.263 501.038 492.87L414.328 493.257C396.39 493.337 381.913 507.802 381.992 525.585L382.669 677.329C382.748 695.112 397.354 709.447 415.292 709.367L537.589 708.822C555.526 708.742 570.004 694.277 569.925 676.493L569.372 552.569ZM518.225 365.167L490.112 365.366L511.215 253.109L485.616 253.223L455.978 260.162L451.499 284.376L480.618 277.291L464.069 365.483L434.031 365.617L429.549 389.238L513.744 388.789L518.225 365.167ZM489.326 719.987C464.066 720.1 439.553 720.209 420.964 720.292C419.762 724.721 416.174 738.096 405.6 775.776C393.331 819.496 375.353 878.234 375.352 878.234C375.352 878.234 343.748 872.867 329.014 873.114C314.28 873.361 313.264 882.08 313.889 882.578C314.514 883.076 337.937 891.715 363.915 901.665C389.893 911.614 417.171 924.366 419.94 922.131C421.306 921.029 439.371 872.843 456.633 821.716C472.86 773.658 486.824 728.148 489.326 719.987ZM429.832 253.546L401.792 253.745L335.416 334.538L330.28 360.604L384.288 360.289L378.722 389.539L404.321 389.425L409.813 360.102L424.758 360.035L429.094 337.006L414.149 337.073L429.832 253.546ZM398.378 284.686L388.699 337.26L354.74 337.412L398.378 284.686ZM371.39 520.602C363.649 526.055 335.939 545.595 312.752 561.26C286.437 579.038 251.758 602.195 251.75 602.742C251.733 603.932 251.912 613.979 256.065 624.697C260.218 635.415 267.888 644.825 269.029 644.911C269.639 644.958 298.749 629.77 327.931 613.722C349.287 601.978 364.716 592.997 371.178 589.262C371.073 565.609 370.965 541.542 370.894 525.635C370.887 523.905 371.2 522.278 371.39 520.602ZM348.967 254.055L261.443 254.519L256.887 278.215L314.447 277.884L248.287 390.343L277.289 390.139L345.352 273.085L348.967 254.055ZM255.293 650.596C254.559 647.813 247.031 631.676 244.293 622.826C241.555 613.976 239.276 605.531 236.901 591.119C235.299 581.395 230.668 558.672 228.828 556.011C224.681 550.011 214.913 557.433 212.674 567.107C210.436 576.781 218.689 590.089 214.21 596.325C209.732 602.561 186.195 599.312 179.432 611.943C172.669 624.574 186.869 646.756 192.492 653.539C198.114 660.323 207.701 667.322 218.295 666.076C228.888 664.83 256.027 653.378 255.293 650.596ZM218.415 460.689C198.841 440.821 186.651 413.603 186.478 383.516L185.709 260.776C185.697 258.765 185.884 256.841 185.978 254.855C161.919 265.868 144.199 307.277 144.482 356.698C144.813 414.412 169.576 461.093 199.771 460.92C199.79 460.92 199.826 460.92 199.845 460.92L218.415 460.689Z" fill="#122350" fill-rule="nonzero" opacity="1" stroke="#122350" stroke-linecap="butt" stroke-linejoin="round" stroke-width="1.32217"/>
</g>
</svg>
